<svg xmlns="http://www.w3.org/2000/svg" viewBox="0 0 750 500"><g id="freepik--background-complete--inject-11"><polygon points="598.16 283.28 604.2 293.78 610.23 304.28 616.31 293.8 622.39 283.32 614.01 283.31 614.1 242.82 606.62 242.81 606.53 283.29 598.16 283.28" style="fill:#e0e0e0"></polygon><polygon points="619.66 255.48 623.25 261.74 626.85 268.01 630.48 261.76 634.1 255.51 629.11 255.5 629.16 231.36 624.7 231.35 624.65 255.49 619.66 255.48" style="fill:#e0e0e0"></polygon><polygon points="205.55 91.67 199.52 81.17 193.48 70.67 187.41 81.15 181.33 91.63 189.7 91.64 189.62 132.13 197.1 132.14 197.18 91.66 205.55 91.67" style="fill:#e0e0e0"></polygon><polygon points="181.71 118.3 178.06 111.95 174.41 105.6 170.74 111.94 167.06 118.27 172.12 118.28 172.08 142.75 176.6 142.76 176.65 118.29 181.71 118.3" style="fill:#e0e0e0"></polygon><path d="M623.36,417.72c-15-9.79-18.75-28.54-18.59-45.47,0-2.83-.36-5.8.94-8.31s4.44-4.28,7-3.15c2.15.93,3.14,3.35,4.38,5.34A16.62,16.62,0,0,0,624,372.3c1.85.89,4.12,1.4,5.89.38,2.44-1.4,2.65-4.77,2.56-7.58L632,349.39a25.72,25.72,0,0,1,.65-8.36c.82-2.69,2.71-5.21,5.4-6s6.08.65,6.72,3.39a25.34,25.34,0,0,1,.17,3.49,2.94,2.94,0,0,0,1.82,2.74c1.14.3,2.26-.52,3.09-1.36,2.87-2.91,4.77-6.61,6.55-10.29s3.49-7.44,6.08-10.6,6.22-5.7,10.29-6,8.47,2,9.6,6-1.11,8-3.58,11.28a63.06,63.06,0,0,1-12.93,12.76,5.19,5.19,0,0,0-2.15,2.4c-.57,1.89,1.27,3.7,3.16,4.28,2.14.64,4.44.37,6.66.57s4.66,1.12,5.55,3.17c1.23,2.84-1.13,5.91-3.47,7.94a54.65,54.65,0,0,1-15.89,9.56c-2.07.81-4.26,1.52-5.91,3s-2.61,4.05-1.55,6,3.71,2.53,5.89,2.07,4.12-1.67,6.19-2.5c3.88-1.55,8.93-1.41,11.52,1.87a8.8,8.8,0,0,1,1.15,7.84,20.4,20.4,0,0,1-4.14,7.05,54.7,54.7,0,0,1-23,16.76c-9,3.33-17.39,4.37-26.49,1.33" style="fill:#f0f0f0"></path><path d="M678.11,318.57a2.58,2.58,0,0,1-.27.27l-.83.76c-.73.67-1.81,1.65-3.16,3a104.9,104.9,0,0,0-10.6,11.83c-2.06,2.66-4.19,5.66-6.42,8.92s-4.57,6.77-6.91,10.55A126.89,126.89,0,0,0,643.19,366c-1.05,2.18-2,4.45-2.91,6.77s-1.89,4.66-2.85,7A252.89,252.89,0,0,0,628,407.12a123.72,123.72,0,0,0-4.17,23.17,89.17,89.17,0,0,0,.14,15.88c.19,1.87.38,3.32.54,4.29l.16,1.12a2.7,2.7,0,0,1,0,.38s-.47-2-.91-5.77a87.37,87.37,0,0,1-.27-15.92A122.24,122.24,0,0,1,627.57,407,251.86,251.86,0,0,1,637,379.68l2.86-7c.94-2.31,1.87-4.6,2.92-6.78a125.42,125.42,0,0,1,6.78-12.21c2.35-3.78,4.71-7.28,6.95-10.54s4.39-6.25,6.47-8.9a100.73,100.73,0,0,1,10.72-11.77c1.38-1.29,2.47-2.25,3.22-2.9l.86-.73Z" style="fill:#e0e0e0"></path><path d="M642.92,365.81a6.59,6.59,0,0,1-.29-1.19c-.16-.78-.36-1.9-.59-3.3-.47-2.79-1-6.66-1.53-10.93s-1.13-8.13-1.66-10.9c-.25-1.38-.47-2.5-.64-3.28A6.11,6.11,0,0,1,638,335a9.09,9.09,0,0,1,.36,1.18c.22.76.48,1.87.78,3.25.6,2.77,1.23,6.63,1.78,10.91s1,8.06,1.4,10.94c.19,1.34.34,2.45.46,3.31A6.82,6.82,0,0,1,642.92,365.81Z" style="fill:#e0e0e0"></path><path d="M679.35,358.19l-.37.07-1.09.12c-.93.09-2.29.23-4,.46-3.35.43-7.95,1.19-13,2.25s-9.55,2.23-12.79,3.18c-1.62.46-2.93.86-3.83,1.14l-1,.32c-.24.07-.37.1-.37.08a1.19,1.19,0,0,1,.34-.16l1-.39c.89-.33,2.18-.78,3.79-1.28,3.23-1,7.74-2.23,12.79-3.31s9.67-1.77,13-2.13c1.68-.19,3.05-.28,4-.33l1.09,0C679.22,358.17,679.35,358.17,679.35,358.19Z" style="fill:#e0e0e0"></path><path d="M628,406.33a2.46,2.46,0,0,1-.25-.44l-.65-1.3c-.56-1.12-1.33-2.77-2.26-4.82-1.86-4.1-4.25-9.84-6.81-16.21s-4.91-12.12-6.7-16.24l-2.13-4.88c-.24-.54-.43-1-.58-1.33a2.74,2.74,0,0,1-.18-.47s.1.14.26.44l.65,1.29c.56,1.13,1.33,2.78,2.26,4.83,1.86,4.1,4.25,9.84,6.81,16.21s4.91,12.11,6.69,16.24l2.14,4.88c.23.54.43,1,.58,1.32A3,3,0,0,1,628,406.33Z" style="fill:#e0e0e0"></path><path d="M676.21,389.7a2.67,2.67,0,0,1-.48.2l-1.4.49-5.17,1.77c-4.37,1.51-10.37,3.66-17,6s-12.65,4.51-17,5.94c-2.19.72-4,1.28-5.21,1.65l-1.43.41a2.94,2.94,0,0,1-.51.12,2.26,2.26,0,0,1,.48-.2l1.41-.49,5.17-1.78c4.36-1.5,10.37-3.65,17-6.05s12.65-4.5,17-5.93c2.2-.72,4-1.28,5.22-1.65l1.43-.41A1.66,1.66,0,0,1,676.21,389.7Z" style="fill:#e0e0e0"></path></g><g id="freepik--Floor--inject-11"><path d="M677.85,450.46c0,.14-135.6.26-302.84.26s-302.86-.12-302.86-.26,135.57-.26,302.86-.26S677.85,450.31,677.85,450.46Z" style="fill:#263238"></path></g><g id="freepik--Plant--inject-11"><path d="M134.45,419.42A18.73,18.73,0,0,0,122.83,418c-2.1.35-4.3,1-5.73,2.56s-1.71,4.37-.06,5.73a5.5,5.5,0,0,0,3.61.92c3.08,0,6.48-.58,8.94,1.27,1.4,1.05,2.33,2.8,4,3.32a4,4,0,0,0,4.36-1.93,6.83,6.83,0,0,0,.49-5A7.64,7.64,0,0,0,134.45,419.42Z" style="fill:#3A75FD"></path><path d="M142.55,403.79c-2.16,3.09-6.36,2.06-8.31.18s-2.77-4.61-3.52-7.22c-1.71-5.95-3.44-12.19-2.16-18.24a10.06,10.06,0,0,1,2.33-5,5.26,5.26,0,0,1,5-1.67c2.11.55,3.43,2.63,4.38,4.6a43.42,43.42,0,0,1,4.3,18.67c0,3-.35,6.16-2,8.64" style="fill:#3A75FD"></path><g style="opacity:0.2"><path d="M142.55,403.79c-2.16,3.09-6.36,2.06-8.31.18s-2.77-4.61-3.52-7.22c-1.71-5.95-3.44-12.19-2.16-18.24a10.06,10.06,0,0,1,2.33-5,5.26,5.26,0,0,1,5-1.67c2.11.55,3.43,2.63,4.38,4.6a43.42,43.42,0,0,1,4.3,18.67c0,3-.35,6.16-2,8.64"></path></g><path d="M148.48,408.22a11.24,11.24,0,0,1-1.74-10.34,19.88,19.88,0,0,1,6.12-8.87,32.94,32.94,0,0,1,11-6.47,11.61,11.61,0,0,1,4.93-.84,5.18,5.18,0,0,1,4.13,2.5c1.16,2.2.05,4.87-1.15,7.05a82.46,82.46,0,0,1-7.2,11c-2.15,2.78-4.63,5.53-7.91,6.78s-6.71,1.11-8.45-1.17" style="fill:#3A75FD"></path><path d="M142.69,450.34a6.86,6.86,0,0,1-.19-1.4c-.1-1-.22-2.3-.37-3.83s-.42-3.52-.86-5.61a44.25,44.25,0,0,0-2-6.62,24.14,24.14,0,0,0-3.39-6,12.74,12.74,0,0,0-4.27-3.56A12.32,12.32,0,0,0,128,422.2a6.62,6.62,0,0,1-1.39-.2,6.22,6.22,0,0,1,1.42,0,10.75,10.75,0,0,1,3.75,1,12.61,12.61,0,0,1,4.52,3.58,24,24,0,0,1,3.5,6.12,41.31,41.31,0,0,1,2,6.73,46.91,46.91,0,0,1,.74,5.69c.13,1.62.17,2.94.19,3.85A6.43,6.43,0,0,1,142.69,450.34Z" style="fill:#263238"></path><path d="M142.43,447.4a3,3,0,0,1,0-.65c0-.49,0-1.11,0-1.86,0-1.62,0-3.95-.08-6.84-.15-5.77-.64-13.74-1.6-22.49s-2.25-16.64-3.42-22.3c-.28-1.41-.55-2.69-.82-3.81s-.46-2.08-.66-2.86-.33-1.33-.44-1.81a2.76,2.76,0,0,1-.11-.64,2.71,2.71,0,0,1,.22.61l.54,1.78c.24.78.49,1.73.77,2.85s.6,2.38.9,3.8a212,212,0,0,1,3.59,22.31c1,8.78,1.4,16.77,1.43,22.55,0,2.9,0,5.24-.1,6.85,0,.76-.08,1.37-.11,1.86A2.56,2.56,0,0,1,142.43,447.4Z" style="fill:#263238"></path><path d="M142.39,432a12.6,12.6,0,0,1,0-1.95c.07-1.24.24-3.05.59-5.26a70.14,70.14,0,0,1,1.71-7.67,67.68,67.68,0,0,1,3.21-9.08,48.07,48.07,0,0,1,9.43-14.67,22.66,22.66,0,0,1,2.21-2.07c.34-.28.64-.57.95-.8l.86-.59a11.63,11.63,0,0,1,1.64-1,59.05,59.05,0,0,0-5.37,4.79,51,51,0,0,0-9.19,14.62,73.42,73.42,0,0,0-3.22,9c-.84,2.82-1.4,5.41-1.83,7.6s-.63,4-.77,5.21A11.67,11.67,0,0,1,142.39,432Z" style="fill:#263238"></path></g><g id="freepik--Windows--inject-11"><rect x="221.5" y="106.72" width="307.37" height="239.17" style="fill:#fff"></rect><path d="M528.87,345.89c0-1.79-.09-94.8-.22-239.17l.22.21-307.34,0h0l.26-.26c0,86.21,0,167.75,0,239.17l-.23-.24,307.37.24-307.37.23h-.23v-.23c0-71.42,0-153,0-239.17v-.26h.29l307.34,0h.21v.22C529,251.09,528.87,344.1,528.87,345.89Z" style="fill:#263238"></path><path d="M306,325.8c-.15,0-.26-26-.26-58.06s.11-58.07.26-58.07.26,26,.26,58.07S306.16,325.8,306,325.8Z" style="fill:#263238"></path><path d="M439.41,325.8c-.15,0-.26-26-.26-58.06s.11-58.07.26-58.07.26,26,.26,58.07S439.55,325.8,439.41,325.8Z" style="fill:#263238"></path><path d="M351.55,325.8c-.14,0-.26-33.23-.26-74.22s.12-74.24.26-74.24.26,33.23.26,74.24S351.7,325.8,351.55,325.8Z" style="fill:#263238"></path><path d="M259.25,325.8c-.15,0-.26-33.23-.26-74.22s.11-74.24.26-74.24.26,33.23.26,74.24S259.39,325.8,259.25,325.8Z" style="fill:#263238"></path><path d="M491.76,325.8c-.14,0-.26-33.23-.26-74.22s.12-74.24.26-74.24.26,33.23.26,74.24S491.91,325.8,491.76,325.8Z" style="fill:#263238"></path><path d="M391.49,325.8c-.15,0-.26-38.37-.26-85.7s.11-85.72.26-85.72.26,38.37.26,85.72S391.63,325.8,391.49,325.8Z" style="fill:#263238"></path><path d="M307.11,209.67a1.09,1.09,0,1,1-1.09-1.09A1.09,1.09,0,0,1,307.11,209.67Z" style="fill:#263238"></path><circle cx="351.55" cy="177.34" r="1.09" style="fill:#263238"></circle><path d="M351.55,181.16a3.82,3.82,0,1,1,3.82-3.82A3.83,3.83,0,0,1,351.55,181.16Zm0-7.39a3.57,3.57,0,1,0,3.57,3.57A3.58,3.58,0,0,0,351.55,173.77Z" style="fill:#263238"></path><circle cx="391.49" cy="154.38" r="1.09" style="fill:#263238"></circle><circle cx="439.41" cy="210.76" r="1.09" style="fill:#263238"></circle><circle cx="491.79" cy="177.34" r="1.09" style="fill:#263238"></circle><path d="M260.33,178.43a1.09,1.09,0,1,1-1.08-1.09A1.08,1.08,0,0,1,260.33,178.43Z" style="fill:#263238"></path><path d="M502.08,229.88a4,4,0,0,1-.86.28,18.82,18.82,0,0,0-2.47.85,23.81,23.81,0,0,0-7.94,6c-3,3.22-5.95,7.7-9.68,12.74a62.39,62.39,0,0,1-6.58,7.64,37.44,37.44,0,0,1-4.27,3.53,30,30,0,0,1-5.15,2.81,29,29,0,0,1-12.32,2.07,32.42,32.42,0,0,1-6.63-.83,17.27,17.27,0,0,1-6.42-2.82,20.61,20.61,0,0,1-5-5.23c-1.38-2-2.62-4.12-3.82-6.27-2.4-4.33-4.88-8.69-7.71-13.07s-5.35-9.1-8.22-13.7a65.31,65.31,0,0,0-10.07-13,29.55,29.55,0,0,0-6.76-4.84,22.51,22.51,0,0,0-8-2.35,28.19,28.19,0,0,0-16.65,3.56,42,42,0,0,0-12.68,11.83,130.56,130.56,0,0,0-9.07,14.57A147.35,147.35,0,0,1,343,247.94a69.59,69.59,0,0,1-10.63,12.11,37.71,37.71,0,0,1-3.08,2.46,35.23,35.23,0,0,1-3.27,2.13,28.45,28.45,0,0,1-7.08,2.92,24.83,24.83,0,0,1-3.7.69,12.89,12.89,0,0,1-1.86.1c-.62,0-1.24,0-1.85,0a28.14,28.14,0,0,1-7.09-1.32,48,48,0,0,1-12-6.26c-3.56-2.45-6.81-5-10-7.28a52.59,52.59,0,0,0-9.49-5.75,31.72,31.72,0,0,0-9.45-2.69,23.34,23.34,0,0,0-8.49.55,14.66,14.66,0,0,0-1.84.59,11.4,11.4,0,0,0-1.72.68,23,23,0,0,0-3,1.66,32.9,32.9,0,0,0-4.51,3.61l-1.57,1.72a14,14,0,0,0-1.26,1.47l-1.59,2.09a4.56,4.56,0,0,1-.59.69,3.62,3.62,0,0,1,.46-.78l1.47-2.19a14.62,14.62,0,0,1,1.21-1.53l1.54-1.79a30.92,30.92,0,0,1,4.51-3.8,22.61,22.61,0,0,1,3-1.76,10.91,10.91,0,0,1,1.75-.73,14.5,14.5,0,0,1,1.89-.65,23.9,23.9,0,0,1,8.78-.7,32.36,32.36,0,0,1,9.76,2.65,53.83,53.83,0,0,1,9.74,5.76c3.22,2.28,6.49,4.79,10,7.18a46.9,46.9,0,0,0,11.7,6,26.79,26.79,0,0,0,6.76,1.21c.58,0,1.16,0,1.75,0a11.43,11.43,0,0,0,1.75-.11,23.24,23.24,0,0,0,3.5-.67A31.83,31.83,0,0,0,331.38,259a68.51,68.51,0,0,0,10.36-11.89,148.65,148.65,0,0,0,8.67-14.15,130.85,130.85,0,0,1,9.15-14.75,43.66,43.66,0,0,1,13.16-12.26,30.53,30.53,0,0,1,8.56-3.24,30.06,30.06,0,0,1,9-.51,23.94,23.94,0,0,1,8.57,2.53,30.31,30.31,0,0,1,7.11,5.1,67.36,67.36,0,0,1,10.29,13.31c2.88,4.65,5.44,9.34,8.17,13.73s5.33,8.85,7.69,13.16,4.73,8.53,8.39,11.12a16,16,0,0,0,6,2.66,32.26,32.26,0,0,0,6.37.84,28.07,28.07,0,0,0,11.86-1.89,29.1,29.1,0,0,0,5-2.66,36,36,0,0,0,4.18-3.38,60.81,60.81,0,0,0,6.57-7.45c3.78-5,6.85-9.42,9.94-12.62a23,23,0,0,1,8.26-5.9,13.29,13.29,0,0,1,2.55-.71A4.6,4.6,0,0,1,502.08,229.88Z" style="fill:#3A75FD"></path><rect x="258.16" y="133.56" width="53.59" height="2.98" style="fill:#263238"></rect><rect x="258.16" y="140.54" width="26.48" height="2.98" style="fill:#263238"></rect><path d="M225.64,87.21H524.36a4.51,4.51,0,0,1,4.51,4.51v15a0,0,0,0,1,0,0H221.13a0,0,0,0,1,0,0v-15A4.51,4.51,0,0,1,225.64,87.21Z" style="fill:#263238"></path><path d="M237.08,97.34a2.1,2.1,0,1,1-2.1-2.1A2.1,2.1,0,0,1,237.08,97.34Z" style="fill:#fff"></path><path d="M246.25,97.34a2.1,2.1,0,1,1-2.1-2.1A2.1,2.1,0,0,1,246.25,97.34Z" style="fill:#fff"></path><path d="M255.41,97.34a2.1,2.1,0,1,1-2.1-2.1A2.1,2.1,0,0,1,255.41,97.34Z" style="fill:#fff"></path><rect x="102.97" y="247.46" width="126.21" height="35.39" rx="3.23" style="fill:#e6e6e6"></rect><path d="M129.57,271.05a7.69,7.69,0,1,1-1.19-10.81A7.68,7.68,0,0,1,129.57,271.05Z" style="fill:#fff"></path><path d="M127.9,263.63a36.38,36.38,0,0,1-4.17,4.42c-.34.34-.68.67-1,1l-.18.18-.18-.18a24.19,24.19,0,0,1-3.11-3.47,24.19,24.19,0,0,1,3.47,3.11h-.35l1-1A35.79,35.79,0,0,1,127.9,263.63Z" style="fill:#263238"></path><path d="M216.86,262.56c0,.14-16,.26-35.83.26s-35.83-.12-35.83-.26,16-.26,35.83-.26S216.86,262.41,216.86,262.56Z" style="fill:#263238"></path><path d="M187.47,269.56c0,.14-9.28.26-20.72.26S146,269.7,146,269.56s9.27-.26,20.71-.26S187.47,269.41,187.47,269.56Z" style="fill:#263238"></path><rect x="140.22" y="162.2" width="124.43" height="51.67" rx="2.62" style="fill:#e0e0e0"></rect><path d="M166.07,178.53a5.8,5.8,0,1,1-5.8-5.8A5.8,5.8,0,0,1,166.07,178.53Z" style="fill:#3A75FD"></path><rect x="171.87" y="174.52" width="40.42" height="2.24" style="fill:#3A75FD"></rect><rect x="171.87" y="179.62" width="78.62" height="2.24" style="fill:#fff"></rect><path d="M166.07,196.36a5.8,5.8,0,1,1-5.8-5.8A5.79,5.79,0,0,1,166.07,196.36Z" style="fill:#3A75FD"></path><rect x="171.87" y="192.36" width="20.64" height="2.24" style="fill:#3A75FD"></rect><rect x="171.87" y="197.45" width="78.62" height="2.24" style="fill:#fff"></rect><rect x="162.15" y="298.09" width="160.54" height="68.24" rx="3.96" style="fill:#e0e0e0"></rect><path d="M191.52,331.06l-.09-13.84A17.69,17.69,0,0,0,180,321.68a16.35,16.35,0,0,0-5.5,14.33c.07.66.18,1.33.32,2a.09.09,0,0,1,0,.05h0l16.68-3.75Z" style="fill:#3A75FD"></path><path d="M208.71,326.8a16.43,16.43,0,0,0-13.46-9.42l-.53-.05-.34,0c-.33,0-.66,0-1,0h-.09l.09,13.84,0,3.25L210.08,338h0a16,16,0,0,0,.37-3.59A17.9,17.9,0,0,0,208.71,326.8Z" style="fill:#3A75FD"></path><g style="opacity:0.2"><path d="M208.71,326.8a16.43,16.43,0,0,0-13.46-9.42l-.53-.05-.34,0c-.33,0-.66,0-1,0h-.09l.09,13.84,0,3.25L210.08,338h0a16,16,0,0,0,.37-3.59A17.9,17.9,0,0,0,208.71,326.8Z"></path></g><path d="M192.41,336l-16.67,3.76a17.1,17.1,0,0,0,33.38-.11l-16.68-3.64" style="fill:#3A75FD"></path><g style="opacity:0.1"><path d="M192.41,336l-16.67,3.76a17.1,17.1,0,0,0,33.38-.11l-16.68-3.64"></path></g><rect x="221.65" y="321.36" width="84.73" height="3.84" style="fill:#fff"></rect><rect x="221.65" y="331.48" width="84.73" height="3.84" style="fill:#fff"></rect><rect x="221.65" y="342.67" width="45.8" height="3.84" style="fill:#fff"></rect><rect x="349.28" y="249.7" width="167.39" height="161.17" rx="8.41" style="fill:#e6e6e6"></rect><rect x="360.98" y="360.11" width="5.49" height="1.58" style="fill:#263238"></rect><rect x="373.41" y="368.58" width="7.03" height="1.58" style="fill:#263238"></rect><rect x="397.87" y="368.58" width="7.03" height="1.58" style="fill:#263238"></rect><rect x="422.32" y="368.58" width="7.03" height="1.58" style="fill:#263238"></rect><rect x="446.78" y="368.58" width="7.03" height="1.58" style="fill:#263238"></rect><rect x="471.24" y="368.58" width="7.03" height="1.58" style="fill:#263238"></rect><rect x="495.7" y="368.58" width="7.03" height="1.58" style="fill:#263238"></rect><rect x="360.98" y="338.97" width="5.49" height="1.58" style="fill:#263238"></rect><rect x="360.98" y="299.17" width="5.49" height="1.58" style="fill:#263238"></rect><rect x="360.98" y="279.18" width="5.49" height="1.58" style="fill:#263238"></rect><rect x="361.26" y="319.07" width="5.49" height="1.58" style="fill:#263238"></rect><path d="M502.53,361.7l-.59,0-1.73,0-6.65.05-24.45.08-80.66.08H369.08v-.25c0-27,.07-50.71.09-67.72,0-8.49.06-15.29.08-20,0-2.33,0-4.14,0-5.38,0-.6,0-1.06,0-1.4a4.24,4.24,0,0,1,0-.47,4.24,4.24,0,0,1,0,.47c0,.34,0,.8,0,1.4,0,1.24,0,3,0,5.38,0,4.71.05,11.51.08,20,0,17,.05,40.75.09,67.72l-.26-.26h19.11l80.66.07,24.45.08,6.65.05,1.73,0Z" style="fill:#263238"></path><path d="M504.07,319.86c0,.15-29,.26-64.7.26s-64.72-.11-64.72-.26,29-.26,64.72-.26S504.07,319.72,504.07,319.86Z" style="fill:#263238"></path><path d="M504.07,300c0,.14-29,.26-64.7.26s-64.72-.12-64.72-.26,29-.26,64.72-.26S504.07,299.82,504.07,300Z" style="fill:#263238"></path><path d="M504.07,280c0,.14-29,.26-64.7.26s-64.72-.12-64.72-.26,29-.26,64.72-.26S504.07,279.82,504.07,280Z" style="fill:#263238"></path><path d="M504.07,339.76c0,.14-29,.26-64.7.26s-64.72-.12-64.72-.26,29-.26,64.72-.26S504.07,339.62,504.07,339.76Z" style="fill:#263238"></path><path d="M376,357.41V339.76l11-17.08,7.47,5.73,15.32-23.81,9,6.37,12.58-22,10.22,8.32,15.32-29.13,16.51,32.56,13.36-16.29,15.72-4.5v77.44Z" style="fill:#3A75FD"></path><path d="M504.07,273.7l-.27,0-.82,0-3.19,0-12.06.06.11,0-12.92,16.89-.07.08h-.1l-32.36.05.22-.12L429,313.34l-13.36,22.2-.19.32-.23-.3L397.7,311.45h.35l-16,24.92c-1.91,3-3.42,5.28-4.46,6.88-.5.78-.9,1.37-1.18,1.8s-.42.6-.42.6.12-.22.37-.63.64-1.05,1.13-1.84l4.36-6.95,15.84-25,.16-.26.19.25c5.24,7.17,11.17,15.29,17.59,24.06l-.42,0,13.34-22.21,13.63-22.64.07-.12h.14l32.36,0-.16.08,13-16.82,0-.06h.08l12.06.07,3.19,0,.82,0Z" style="fill:#263238"></path><path d="M403.17,317a1.24,1.24,0,1,1-1.24-1.2A1.21,1.21,0,0,1,403.17,317Z" style="fill:#263238"></path><path d="M440.5,295.77a1.24,1.24,0,1,1-1.24-1.2A1.22,1.22,0,0,1,440.5,295.77Z" style="fill:#263238"></path><path d="M469.52,290.56a1.25,1.25,0,1,1-1.24-1.2A1.22,1.22,0,0,1,469.52,290.56Z" style="fill:#263238"></path><ellipse cx="381.44" cy="389.73" rx="8.03" ry="7.73" style="fill:#fff"></ellipse><rect x="401.38" y="384.55" width="94.32" height="2.89" style="fill:#fff"></rect><rect x="401.38" y="391.78" width="39.16" height="2.89" style="fill:#fff"></rect><rect x="462.79" y="124.52" width="111.14" height="92.18" rx="4.94" style="fill:#e6e6e6"></rect><rect x="482.19" y="161.43" width="5.99" height="45.23" style="fill:#3A75FD"></rect><rect x="509.42" y="157.76" width="5.99" height="48.9" style="fill:#3A75FD"></rect><rect x="537.62" y="151.55" width="5.99" height="55.11" style="fill:#3A75FD"></rect><rect x="524.38" y="184.63" width="5.99" height="22.02" style="fill:#3A75FD"></rect><g style="opacity:0.2"><rect x="524.38" y="184.63" width="5.99" height="22.02"></rect></g><rect x="489.17" y="156.58" width="5.99" height="50.08" style="fill:#3A75FD"></rect><g style="opacity:0.1"><rect x="489.17" y="156.58" width="5.99" height="50.08"></rect></g><rect x="516.89" y="146.09" width="5.99" height="60.57" style="fill:#3A75FD"></rect><g style="opacity:0.1"><rect x="516.89" y="146.09" width="5.99" height="60.57"></rect></g><rect x="553.08" y="146.09" width="5.99" height="60.57" style="fill:#3A75FD"></rect><g style="opacity:0.2"><rect x="553.08" y="146.09" width="5.99" height="60.57"></rect></g><rect x="545.26" y="134.13" width="5.99" height="72.53" style="fill:#3A75FD"></rect><g style="opacity:0.1"><rect x="545.26" y="134.13" width="5.99" height="72.53"></rect></g><rect x="496.5" y="174.88" width="5.99" height="31.78" style="fill:#3A75FD"></rect><g style="opacity:0.2"><rect x="496.5" y="174.88" width="5.99" height="31.78"></rect></g><path d="M567.64,209.4c0,.15-21.38.26-47.74.26s-47.75-.11-47.75-.26,21.37-.26,47.75-.26S567.64,209.26,567.64,209.4Z" style="fill:#263238"></path><rect x="469.37" y="198.61" width="3.66" height="1.21" style="fill:#263238"></rect><rect x="469.37" y="182.52" width="3.66" height="1.21" style="fill:#263238"></rect><rect x="469.37" y="152.22" width="3.66" height="1.21" style="fill:#263238"></rect><rect x="469.37" y="137" width="3.66" height="1.21" style="fill:#263238"></rect><rect x="469.56" y="167.37" width="3.66" height="1.21" style="fill:#263238"></rect><rect x="334.81" y="117.03" width="114" height="31.96" rx="3.23" style="fill:#3A75FD"></rect><path d="M358.84,138.34a6.95,6.95,0,1,1-1.07-9.77A7,7,0,0,1,358.84,138.34Z" style="fill:#fff"></path><path d="M353.41,141a7,7,0,0,1-.75-13.9,6.74,6.74,0,0,1,.77,0,7,7,0,0,1,5.43,11.33h0a6.91,6.91,0,0,1-4.68,2.57A6.74,6.74,0,0,1,353.41,141Zm0-13.89a6.74,6.74,0,0,0-.77,0,6.92,6.92,0,1,0,6.16,11.21h0a6.92,6.92,0,0,0-5.39-11.25Z" style="fill:#263238"></path><path d="M357.32,131.63a28.56,28.56,0,0,1-3.74,4l-.91.88-.19.18-.17-.18a20.23,20.23,0,0,1-2.79-3.15,20.23,20.23,0,0,1,3.15,2.79h-.36l.91-.9A29.94,29.94,0,0,1,357.32,131.63Z" style="fill:#3A75FD"></path><path d="M437.68,130.67c0,.14-14.49.26-32.36.26s-32.37-.12-32.37-.26,14.49-.26,32.37-.26S437.68,130.52,437.68,130.67Z" style="fill:#fff"></path><path d="M411.13,137c0,.14-8.37.26-18.71.26s-18.71-.12-18.71-.26,8.38-.26,18.71-.26S411.13,136.84,411.13,137Z" style="fill:#fff"></path></g><g id="freepik--speech-bubble--inject-11"><path d="M623.65,177.84s-.13.17-.42.48-.69.78-1.27,1.35a24.41,24.41,0,0,1-5.8,4,19.16,19.16,0,0,1-2.23,1l-1.23.44-1.32.35a26.21,26.21,0,0,1-2.85.54c-.5.06-1,.08-1.53.13a12,12,0,0,1-1.59,0,24,24,0,0,1-13.67-4.39l.17,0L580,184.1l-.67.13.45-.51,6.54-7.54v.31a26.71,26.71,0,0,1-2.93-5.21,26.11,26.11,0,0,1-1.58-6,24,24,0,0,1,1.8-12.68,24,24,0,0,1,26.4-14,23.88,23.88,0,0,1,12.33,6.36,23.75,23.75,0,0,1,4.9,27.58c-.23.46-.46.9-.67,1.31s-.48.75-.69,1.09a12.81,12.81,0,0,1-1.17,1.66l-.79,1a2.71,2.71,0,0,1-.28.32,1.55,1.55,0,0,1,.24-.35l.75-1a13.5,13.5,0,0,0,1.12-1.68c.2-.34.45-.69.67-1.1s.41-.85.64-1.31a23.58,23.58,0,0,0,1.22-17,23.35,23.35,0,0,0-6.24-10.14,23,23,0,0,0-5.42-3.91,22.63,22.63,0,0,0-6.69-2.29,23.56,23.56,0,0,0-27.61,26.19,25.61,25.61,0,0,0,1.54,5.87,26.22,26.22,0,0,0,2.86,5.11l.11.16-.12.15L580.15,184l-.22-.39,11.9-2.25.08,0,.08,0a23.79,23.79,0,0,0,13.43,4.4,11.54,11.54,0,0,0,1.56,0c.52,0,1,0,1.52-.11a26,26,0,0,0,2.81-.51l1.31-.33,1.22-.43a17.26,17.26,0,0,0,2.21-.92,24.91,24.91,0,0,0,5.82-3.92c.6-.55,1-1,1.32-1.3S623.65,177.84,623.65,177.84Z" style="fill:#263238"></path><polygon points="605.98 157.22 601.97 155.89 597.95 154.56 598.81 158.7 599.66 162.84 601.85 160.9 611.25 171.46 613.2 169.73 603.8 159.16 605.98 157.22" style="fill:#263238"></polygon></g><g id="freepik--character-2--inject-11"><path d="M586.51,435.78l-6.47-6.5,12.1-12.21,9.57,9.42-.7.8c-3.15,3.56-16.28,17.85-19.19,19.42C578.56,448.47,586.51,435.78,586.51,435.78Z" style="fill:#3A75FD"></path><path d="M597.23,430.82a6,6,0,0,1-1.06-4.14,5.78,5.78,0,0,1,1.94-3.73l3.42,3.38Z" style="fill:#263238"></path><path d="M582.81,442.16s-2.56,4.67-1.51,4.81,14.86-13.8,20.41-20.48l-.29-.25-16,16.4S583.54,441.48,582.81,442.16Z" style="fill:#263238"></path><path d="M601.6,426a2.12,2.12,0,0,1-.18.23c-.17.19-.36.4-.56.64l-2.11,2.31c-1.79,1.94-4.29,4.59-7.13,7.46s-5.45,5.4-7.37,7.21L582,446l-.64.57a1.35,1.35,0,0,1-.23.19l.2-.22.61-.6,2.25-2.17c1.89-1.84,4.49-4.39,7.33-7.26s5.35-5.49,7.17-7.41l2.15-2.27.59-.61A1.1,1.1,0,0,1,601.6,426Z" style="fill:#455a64"></path><path d="M585.64,442.82a6.75,6.75,0,0,0-1.47-.63,7.82,7.82,0,0,0-1.6-.09,2.37,2.37,0,0,1,1.65-.12A2.3,2.3,0,0,1,585.64,442.82Z" style="fill:#455a64"></path><path d="M587.38,437.41a1.92,1.92,0,0,1-.85-.08,2,2,0,0,1-.8-.28c0-.06.39,0,.85.08S587.4,437.35,587.38,437.41Z" style="fill:#455a64"></path><path d="M587.84,435.9c0,.06-.32.12-.71.15a1.49,1.49,0,0,1-.73-.06c0-.06.32-.13.71-.15S587.84,435.84,587.84,435.9Z" style="fill:#455a64"></path><path d="M587.31,434.13c0,.05-.21.37-.55.72s-.66.62-.7.58.2-.37.55-.72A2.16,2.16,0,0,1,587.31,434.13Z" style="fill:#455a64"></path><path d="M586.71,433.12a1.75,1.75,0,0,1-.5.91,1.79,1.79,0,0,1-.83.64c0-.05.31-.35.67-.77S586.65,433.09,586.71,433.12Z" style="fill:#455a64"></path><path d="M585.91,436.77a3.48,3.48,0,0,1-.78.78,6.46,6.46,0,0,1-1,.65,2.76,2.76,0,0,1-.67.28.6.6,0,0,1-.43,0,.45.45,0,0,1-.2-.43,2,2,0,0,1,2.19-1.37,2,2,0,0,1,.77.27c.17.1.24.18.23.19a2.71,2.71,0,0,0-1-.31,2,2,0,0,0-1.1.24,1.74,1.74,0,0,0-.86,1c0,.21.16.31.38.25A3.06,3.06,0,0,0,584,438a9.64,9.64,0,0,0,1-.6C585.59,437,585.88,436.74,585.91,436.77Z" style="fill:#455a64"></path><path d="M585.75,437s-.32-.06-.64-.45a1.82,1.82,0,0,1-.36-.78,1.1,1.1,0,0,1,.25-1,.44.44,0,0,1,.6.12,1.22,1.22,0,0,1,.22.48,3.4,3.4,0,0,1,.11.84,1.7,1.7,0,0,1-.13.76s0-.3,0-.76a3.74,3.74,0,0,0-.15-.79c-.06-.27-.28-.64-.51-.48a1,1,0,0,0-.18.85,1.76,1.76,0,0,0,.29.72A3.66,3.66,0,0,0,585.75,437Z" style="fill:#455a64"></path><path d="M598,423s-.38.31-.86.93a5.37,5.37,0,0,0-.62,5.72c.34.71.68,1.08.65,1.1s-.11-.07-.25-.24a4.43,4.43,0,0,1-.53-.79,5.23,5.23,0,0,1,.64-5.88,4.44,4.44,0,0,1,.68-.66A1.22,1.22,0,0,1,598,423Z" style="fill:#455a64"></path><path d="M591.68,419.21a29.22,29.22,0,0,1,2.61,2.38,28.37,28.37,0,0,1,2.47,2.53,31.21,31.21,0,0,1-2.61-2.38A29.91,29.91,0,0,1,591.68,419.21Z" style="fill:#455a64"></path><path d="M594.52,431.17a9.88,9.88,0,0,1-1.59,2,9.69,9.69,0,0,1-1.92,1.65s.8-.8,1.77-1.79S594.47,431.14,594.52,431.17Z" style="fill:#455a64"></path><path d="M596.88,428.78c.06,0,.11.23.21.49s.22.47.18.51-.26-.13-.38-.43S596.83,428.77,596.88,428.78Z" style="fill:#455a64"></path><path d="M596.65,426.76c.06,0,.11.21.11.46s0,.46-.1.46-.1-.2-.11-.46S596.6,426.76,596.65,426.76Z" style="fill:#455a64"></path><path d="M597.42,425s-.13.21-.25.45-.14.46-.2.47-.13-.27,0-.56S597.39,424.92,597.42,425Z" style="fill:#455a64"></path><path d="M598.09,423.81s0,.15,0,.29-.15.24-.2.21,0-.15,0-.29S598,423.78,598.09,423.81Z" style="fill:#455a64"></path><path d="M537,446.53l.22-9.17,17.18.3-.18,13.43-1.07.05c-4.74.17-24.15.57-27.3-.45C522.32,449.56,537,446.53,537,446.53Z" style="fill:#3A75FD"></path><path d="M548,450.84a6,6,0,0,1,2.26-3.63,5.77,5.77,0,0,1,4-1.17l-.08,4.8Z" style="fill:#263238"></path><path d="M529.81,448.26s-5.15,1.39-4.52,2.24,20.24,1.19,28.91.59l0-.39-22.89-.2S530.81,448.32,529.81,448.26Z" style="fill:#263238"></path><path d="M554.45,450.7l-.3,0-.85,0-3.12.08c-2.64.05-6.29.07-10.32,0s-7.67-.2-10.31-.34l-3.12-.18-.85-.07-.29,0a1.29,1.29,0,0,1,.29,0l.85,0,3.13.11c2.63.1,6.28.22,10.31.29s7.67.06,10.31.05h4A1,1,0,0,1,554.45,450.7Z" style="fill:#455a64"></path><path d="M531.29,450.77a4.56,4.56,0,0,0-1.6-2.71,2.26,2.26,0,0,1,1.22,1.1A2.33,2.33,0,0,1,531.29,450.77Z" style="fill:#455a64"></path><path d="M536.4,448.29s-.28-.27-.53-.67-.4-.75-.35-.78.29.27.53.67S536.45,448.25,536.4,448.29Z" style="fill:#455a64"></path><path d="M537.81,447.57c0,.05-.31-.14-.6-.41s-.5-.53-.46-.57.31.14.6.42S537.85,447.53,537.81,447.57Z" style="fill:#455a64"></path><path d="M538.72,446a2.14,2.14,0,0,1-.9.09,2.2,2.2,0,0,1-.9-.1,1.86,1.86,0,0,1,.9-.1A2,2,0,0,1,538.72,446Z" style="fill:#455a64"></path><path d="M539,444.83a1.75,1.75,0,0,1-1,.27,1.77,1.77,0,0,1-1-.15,5.7,5.7,0,0,1,1-.06A5,5,0,0,1,539,444.83Z" style="fill:#455a64"></path><path d="M535.85,446.78a3.56,3.56,0,0,1-1.11,0,6.31,6.31,0,0,1-1.17-.28,3.16,3.16,0,0,1-.67-.29.6.6,0,0,1-.26-.35.4.4,0,0,1,.17-.43,2,2,0,0,1,2.49.63,1.84,1.84,0,0,1,.35.74.76.76,0,0,1,0,.3,3.36,3.36,0,0,0-.49-.95,2,2,0,0,0-.93-.63,1.73,1.73,0,0,0-1.32.07c-.18.13-.11.33.08.45a3.37,3.37,0,0,0,.61.28,7.33,7.33,0,0,0,1.14.31C535.43,446.73,535.85,446.74,535.85,446.78Z" style="fill:#455a64"></path><path d="M535.56,446.83a1.1,1.1,0,0,1-.11-.77,1.82,1.82,0,0,1,.31-.81,1.11,1.11,0,0,1,.93-.54.42.42,0,0,1,.33.51,1.14,1.14,0,0,1-.19.49,2.89,2.89,0,0,1-.54.66,1.54,1.54,0,0,1-.64.44s.23-.2.54-.54a4.06,4.06,0,0,0,.47-.65c.16-.24.27-.65,0-.71s-.56.24-.73.46a1.81,1.81,0,0,0-.33.71A4.68,4.68,0,0,0,535.56,446.83Z" style="fill:#455a64"></path><path d="M554.18,446s-.49-.06-1.27,0a5.36,5.36,0,0,0-4.56,3.51c-.28.73-.31,1.23-.35,1.22a.89.89,0,0,1,0-.34,4.49,4.49,0,0,1,.2-.93,5.22,5.22,0,0,1,4.69-3.61,5,5,0,0,1,.94,0C554.06,445.94,554.18,446,554.18,446Z" style="fill:#455a64"></path><path d="M552.52,438.8a29,29,0,0,1,.09,3.54,29.69,29.69,0,0,1-.12,3.53,28.82,28.82,0,0,1-.09-3.53A29.94,29.94,0,0,1,552.52,438.8Z" style="fill:#455a64"></path><path d="M545.84,449.13a9.84,9.84,0,0,1-2.52.2,10.07,10.07,0,0,1-2.5-.24c0-.06,1.12,0,2.51,0S545.83,449.07,545.84,449.13Z" style="fill:#455a64"></path><path d="M549.21,449.18s-.1.24-.22.49-.18.48-.24.48-.09-.27,0-.57S549.17,449.14,549.21,449.18Z" style="fill:#455a64"></path><path d="M550.5,447.62s-.07.22-.25.4-.36.29-.4.24.07-.21.25-.39S550.46,447.58,550.5,447.62Z" style="fill:#455a64"></path><path d="M552.33,446.93c0,.06-.24.05-.49.14s-.44.21-.49.17.11-.27.42-.37S552.35,446.88,552.33,446.93Z" style="fill:#455a64"></path><path d="M553.63,446.61c0,.06-.08.14-.22.2s-.28.05-.3,0,.08-.14.22-.19S553.61,446.56,553.63,446.61Z" style="fill:#455a64"></path><path d="M546.19,249.91c-6.37,18.81-17.85,52.88-17.85,52.88a29.25,29.25,0,0,1-4.76,2.28,12.84,12.84,0,0,1-3.5.35,1.09,1.09,0,0,0-1.07,1.77c.7.68,3.65,1.17,7,.17s.86,4.06-.24,5.74-4.2,7.16-4,7.91c.36,1.09,1.7.63,2.76-1.06s4.23-6.63,4.69-6.37c.91.5-4.57,9.25-4.57,9.25s-1.26,1.53-.3,2.28c1.75,1.35,7.11-8.05,7.6-9,.34-.63.79-.14.39.52s-5.08,8.36-3.67,9.24,4.73-6.79,6.07-8.22c1.53-1.61-3.06,6.42-1.73,7.38.49.36.91.56,3.22-4.09A136.58,136.58,0,0,0,541.41,307c4.9-9.82,18.93-40.16,23.57-60.81" style="fill:#e5baab"></path><path d="M549.57,204s13.64-3.94,16.33,16.93c1.68,13.07,5.52,44.65,7,60.89.13,1.53-.83.93-.71,2.19.13,1.47,1.43,2.66,1.43,3.71,0,3.35-3.83,3.29-3.83,3.29l-35.64,1.7s-3.31.07-3.32-2.82c0-2.19,1.43-3.16,1.53-4.53,1.52-19.52,1.49-68.14,3.69-74.82C538.14,204.14,539.48,204,549.57,204Z" style="fill:#3A75FD"></path><path d="M552.27,205a7.85,7.85,0,0,1,.83.88c.5.56,1.2,1.33,1.95,2.2s1.38,1.71,1.81,2.32a6.78,6.78,0,0,1,.65,1,7,7,0,0,1-.77-.95c-.46-.59-1.1-1.4-1.85-2.27s-1.43-1.66-1.9-2.24A7.5,7.5,0,0,1,552.27,205Z" style="fill:#263238"></path><path d="M553.84,204.64a5.92,5.92,0,0,1-.57.26l-1.57.65c-1.34.54-3.2,1.24-5.28,2s-4,1.32-5.36,1.73l-1.64.47a5,5,0,0,1-.61.14,3.48,3.48,0,0,1,.59-.22l1.62-.53c1.37-.44,3.26-1.06,5.33-1.78s3.94-1.4,5.29-1.9l1.6-.59A2.51,2.51,0,0,1,553.84,204.64Z" style="fill:#263238"></path><path d="M539,206a16.46,16.46,0,0,1,0,3.8,18.1,18.1,0,0,1,0-3.8Z" style="fill:#263238"></path><path d="M563.35,211.44c0,.06-6.05.1-13.53.1s-13.52,0-13.52-.1,6.05-.1,13.52-.1S563.35,211.38,563.35,211.44Z" style="fill:#e0e0e0"></path><path d="M565.1,215.89a1.36,1.36,0,0,1-.3,0l-.88,0-3.21-.12-10.6-.33-10.6-.2-3.21,0-.88,0-.3,0a1.71,1.71,0,0,1,.3,0l.88,0,3.21,0c2.72,0,6.47,0,10.61.13s7.89.26,10.6.39l3.21.19.87.06Z" style="fill:#e0e0e0"></path><path d="M565.52,219.82c0,.06-6.84.11-15.28.11s-15.29-.05-15.29-.11,6.84-.1,15.29-.1S565.52,219.77,565.52,219.82Z" style="fill:#e0e0e0"></path><path d="M566.3,224.08c0,.06-7.09.11-15.84.11s-15.84-.05-15.84-.11,7.09-.1,15.84-.1S566.3,224,566.3,224.08Z" style="fill:#e0e0e0"></path><path d="M567,228.76c0,.06-7.25.1-16.2.1s-16.2,0-16.2-.1,7.25-.1,16.2-.1S567,228.7,567,228.76Z" style="fill:#e0e0e0"></path><path d="M567.47,233.44c0,.05-7.36.1-16.43.1s-16.42,0-16.42-.1,7.35-.11,16.42-.11S567.47,233.38,567.47,233.44Z" style="fill:#e0e0e0"></path><path d="M568,238.45c0,.06-7.49.1-16.71.1s-16.71,0-16.71-.1,7.48-.11,16.71-.11S568,238.39,568,238.45Z" style="fill:#e0e0e0"></path><path d="M568.6,242.79c0,.06-7.61.1-17,.1s-17,0-17-.1,7.6-.1,17-.1S568.6,242.73,568.6,242.79Z" style="fill:#e0e0e0"></path><path d="M569.32,247.56c0,.06-7.77.1-17.35.1s-17.35,0-17.35-.1,7.76-.11,17.35-.11S569.32,247.5,569.32,247.56Z" style="fill:#e0e0e0"></path><path d="M569.72,252.33s-7.86.1-17.55.1-17.55-.05-17.55-.1,7.86-.11,17.55-.11S569.72,252.27,569.72,252.33Z" style="fill:#e0e0e0"></path><path d="M570.27,257.09c0,.06-8,.11-17.82.11s-17.83-.05-17.83-.11,8-.1,17.83-.1S570.27,257,570.27,257.09Z" style="fill:#e0e0e0"></path><path d="M570.81,261.86c0,.06-8.1.11-18.09.11s-18.1-.05-18.1-.11,8.1-.1,18.1-.1S570.81,261.8,570.81,261.86Z" style="fill:#e0e0e0"></path><path d="M571.34,266.63c0,.06-8.41.1-18.78.1s-18.78,0-18.78-.1,8.4-.1,18.78-.1S571.34,266.57,571.34,266.63Z" style="fill:#e0e0e0"></path><path d="M571.85,271.4c0,.06-8.68.1-19.38.1s-19.39,0-19.39-.1,8.68-.11,19.39-.11S571.85,271.34,571.85,271.4Z" style="fill:#e0e0e0"></path><path d="M572.34,276.17c0,.05-8.82.1-19.7.1s-19.71,0-19.71-.1,8.82-.11,19.71-.11S572.34,276.11,572.34,276.17Z" style="fill:#e0e0e0"></path><path d="M572.81,280.93c0,.06-8.93.11-19.94.11s-19.94-.05-19.94-.11,8.93-.1,19.94-.1S572.81,280.88,572.81,280.93Z" style="fill:#e0e0e0"></path><path d="M572.54,285.7c0,.06-9,0-20.09-.08s-20.1-.22-20.1-.28,9,0,20.1.08S572.54,285.64,572.54,285.7Z" style="fill:#e0e0e0"></path><path d="M572.54,290.1c0,.06-9.32.19-20.82.31s-20.83.15-20.83.1,9.32-.2,20.82-.31S572.54,290,572.54,290.1Z" style="fill:#e0e0e0"></path><path d="M545.66,267.76a9.16,9.16,0,0,0,6.52-1.7,19.94,19.94,0,0,0,4.64-5.13,47.88,47.88,0,0,0,8.08-23.63,104.11,104.11,0,0,0-.08-12.92,105.42,105.42,0,0,1-6.28,24.41,62.12,62.12,0,0,1-10.88,18.06" style="fill:#3A75FD"></path><g style="opacity:0.2"><path d="M545.66,267.76a9.16,9.16,0,0,0,6.52-1.7,19.94,19.94,0,0,0,4.64-5.13,47.88,47.88,0,0,0,8.08-23.63,104.11,104.11,0,0,0-.08-12.92,105.42,105.42,0,0,1-6.28,24.41,62.12,62.12,0,0,1-10.88,18.06"></path></g><path d="M568.14,272.09a36.49,36.49,0,0,1-3.55,3.36,47,47,0,0,1-4.27,3.18,47,47,0,0,1-11.74,5.57,47.81,47.81,0,0,1-5.16,1.29,37.35,37.35,0,0,1-4.86.62l.34-.06,1-.12c.84-.1,2-.29,3.53-.59a47.9,47.9,0,0,0,5.13-1.33,52.94,52.94,0,0,0,6-2.38,53.86,53.86,0,0,0,5.66-3.16,50.94,50.94,0,0,0,4.27-3.13c1.17-1,2.08-1.77,2.69-2.36l.71-.67Z" style="fill:#263238"></path><path d="M558.36,249.53s-.08,0-.2-.05l-.57-.18-2.05-.71-6.71-2.5c-2.62-1-5-1.74-6.79-2.24l-2.09-.59-.57-.17-.19-.07.2,0,.58.13c.5.11,1.22.29,2.11.52,1.77.48,4.19,1.23,6.82,2.2s5,1.9,6.69,2.55l2,.78.55.21Z" style="fill:#263238"></path><path d="M558.36,249.53s.08-.27.27-.77l.81-2.23c.69-1.93,1.69-4.73,2.65-8.28a116.29,116.29,0,0,0,2.33-12.67,16,16,0,0,0-.32-7.49,10.15,10.15,0,0,0-2-3.42,17.92,17.92,0,0,0-1.45-1.44,6,6,0,0,0-1.7-1.14,6.83,6.83,0,0,0-4-.42,9.54,9.54,0,0,0-3.66,1.51c-2.25,1.44-3.29,3.94-4.06,6.19-1.53,4.6-2.91,8.75-4.08,12.25l-2.76,8.25c-.32.93-.57,1.68-.76,2.24s-.28.77-.28.77l.24-.79.72-2.25c.66-2,1.58-4.81,2.7-8.27s2.52-7.65,4-12.26a19,19,0,0,1,1.48-3.43,8.54,8.54,0,0,1,2.65-2.87,9.6,9.6,0,0,1,3.74-1.54,7,7,0,0,1,4.12.42,6.27,6.27,0,0,1,1.75,1.18,14.57,14.57,0,0,1,1.47,1.47,10.26,10.26,0,0,1,2,3.48,16.09,16.09,0,0,1,.32,7.59,113.68,113.68,0,0,1-2.38,12.68c-1,3.55-2,6.34-2.71,8.27S558.36,249.53,558.36,249.53Z" style="fill:#263238"></path><path d="M566.81,306.77l.79,58.14a64.69,64.69,0,0,0,1.25,11.94c1.07,5.37,3,12.36,6.08,16.7,4.71,6.58,21.31,25.2,21.31,25.2l-14,16.33s-29.63-23.6-31.54-45.39c-1-11.07,0-77.27,0-77.27Z" style="fill:#263238"></path><path d="M534.14,292.69l-.36,150.42h23.15L561,312.24s6.7-4.42,7.88-10.06c1.6-7.63.88-11.19.88-11.19Z" style="fill:#263238"></path><rect x="532.73" y="439.48" width="25.16" height="3.63" style="fill:#455a64"></rect><rect x="575.86" y="423.97" width="25.16" height="3.63" transform="translate(-125.43 559.75) rotate(-46.52)" style="fill:#455a64"></rect><path d="M594.8,416.71a1.45,1.45,0,0,1-.14.18l-.44.47-1.6,1.72c-1.35,1.46-3.18,3.51-5.29,5.7s-4,4-5.48,5.51l-1.68,1.65-.47.44a.9.9,0,0,1-.17.15.78.78,0,0,1,.14-.18l.44-.47,1.63-1.69,5.44-5.56,5.33-5.65,1.65-1.68.47-.44A.9.9,0,0,1,594.8,416.71Z" style="fill:#263238"></path><path d="M551.78,291.9s0,.13-.07.38a6.34,6.34,0,0,1-1.34,2.65,21,21,0,0,1-1.77,1.8,17.34,17.34,0,0,0-2.11,2.32c-.68,1-.62,2.29-.69,3.61-.09,2.7-.19,5.77-.31,9.15s-.24,7.11-.37,11.09-.23,8.25-.35,12.73c-.24,9-.58,18.82-.79,29.17-.35,20.69-.66,39.42-.89,53-.25,13.25-.39,20.55-.42,22,0,0,0-.53,0-1.53s0-2.49.05-4.37c0-3.82.13-9.3.23-16.06.21-13.59.5-32.32.82-53,.21-10.35.56-20.21.8-29.17.14-4.49.26-8.75.38-12.73s.27-7.7.4-11.09.23-6.45.33-9.15c.08-1.32,0-2.67.73-3.66a17,17,0,0,1,2.14-2.33,22.62,22.62,0,0,0,1.77-1.78,6.63,6.63,0,0,0,1-1.54,7.18,7.18,0,0,0,.38-1.07Z" style="fill:#455a64"></path><path d="M537.94,293.71s-.19-.14-.33-.39-.19-.47-.14-.49.2.15.33.39S538,293.68,537.94,293.71Z" style="fill:#455a64"></path><path d="M539.27,295.2s-.23-.08-.43-.27-.33-.39-.29-.43.24.09.43.28S539.3,295.16,539.27,295.2Z" style="fill:#455a64"></path><path d="M541,296.26c0,.05-.24,0-.49-.14s-.42-.28-.39-.33.25,0,.49.14S541,296.21,541,296.26Z" style="fill:#455a64"></path><path d="M542.88,296.8c0,.05-.23.05-.51,0s-.48-.15-.47-.2.25-.06.51,0S542.89,296.74,542.88,296.8Z" style="fill:#455a64"></path><path d="M544.87,296.72c0,.06-.2.14-.48.17s-.51,0-.51-.05.22-.11.49-.15S544.86,296.67,544.87,296.72Z" style="fill:#455a64"></path><path d="M546.75,296s-.16.19-.42.3-.48.17-.49.11.16-.19.41-.3S546.72,296,546.75,296Z" style="fill:#455a64"></path><path d="M548.35,294.85s-.1.22-.31.41-.42.29-.45.24.11-.22.31-.4S548.31,294.81,548.35,294.85Z" style="fill:#455a64"></path><path d="M549.56,293.26c.05,0,0,.24-.19.48s-.31.4-.36.36,0-.25.19-.48S549.51,293.23,549.56,293.26Z" style="fill:#455a64"></path><path d="M550.08,292s.07.11,0,.2-.1.16-.15.14-.08-.11-.05-.2S550,292,550.08,292Z" style="fill:#455a64"></path><path d="M543.93,300.64c-.06,0-.1-.23-.09-.5s.06-.5.12-.5.1.23.09.51S544,300.64,543.93,300.64Z" style="fill:#455a64"></path><path d="M543.86,302.64c-.06,0-.1-.23-.09-.5s.07-.5.12-.5.1.23.09.5S543.92,302.64,543.86,302.64Z" style="fill:#455a64"></path><path d="M543.79,304.64s-.09-.23-.08-.5.06-.5.12-.5.09.23.09.5S543.85,304.64,543.79,304.64Z" style="fill:#455a64"></path><path d="M543.73,306.64c-.06,0-.1-.23-.09-.5s.07-.5.12-.5.1.23.09.5S543.79,306.64,543.73,306.64Z" style="fill:#455a64"></path><path d="M543.67,308.64c-.06,0-.1-.23-.09-.51s.06-.49.12-.49.1.22.09.5S543.73,308.64,543.67,308.64Z" style="fill:#455a64"></path><path d="M543.61,310.64c-.06,0-.1-.23-.09-.51s.06-.49.12-.49.1.22.09.5S543.67,310.64,543.61,310.64Z" style="fill:#455a64"></path><path d="M543.55,312.64c-.06,0-.1-.23-.09-.5s.06-.5.12-.5.1.23.09.5S543.61,312.64,543.55,312.64Z" style="fill:#455a64"></path><path d="M543.49,314.64c-.06,0-.1-.23-.09-.5s.06-.5.12-.5.1.23.09.5S543.55,314.64,543.49,314.64Z" style="fill:#455a64"></path><path d="M543.43,316.64s-.09-.23-.09-.5.06-.5.12-.5.1.23.09.5S543.49,316.64,543.43,316.64Z" style="fill:#455a64"></path><path d="M543.38,318.64c-.06,0-.1-.23-.09-.5s.06-.5.12-.5.09.23.09.5S543.43,318.64,543.38,318.64Z" style="fill:#455a64"></path><path d="M543.32,320.64c-.05,0-.1-.22-.09-.5s.06-.5.12-.5.1.23.09.51S543.38,320.65,543.32,320.64Z" style="fill:#455a64"></path><path d="M543.27,322.65c-.06,0-.1-.23-.09-.51s.06-.5.12-.5.09.23.09.51S543.33,322.65,543.27,322.65Z" style="fill:#455a64"></path><path d="M543.22,324.65c-.06,0-.1-.23-.09-.5s.06-.5.11-.5.1.22.09.5S543.28,324.65,543.22,324.65Z" style="fill:#455a64"></path><path d="M543.17,326.65c-.06,0-.1-.23-.09-.5s0-.5.11-.5.1.23.09.5S543.22,326.65,543.17,326.65Z" style="fill:#455a64"></path><path d="M543.12,328.65c-.06,0-.1-.22-.1-.5s.06-.5.12-.5.1.23.09.51S543.17,328.66,543.12,328.65Z" style="fill:#455a64"></path><path d="M543.07,330.66c-.06,0-.1-.23-.09-.51s0-.5.11-.49.1.22.09.5S543.13,330.66,543.07,330.66Z" style="fill:#455a64"></path><path d="M543,332.66c-.06,0-.1-.23-.09-.5s.06-.5.11-.5.1.23.1.5S543.08,332.66,543,332.66Z" style="fill:#455a64"></path><path d="M543,334.67c-.05,0-.1-.23-.09-.51s.06-.5.12-.5.09.23.09.51S543,334.67,543,334.67Z" style="fill:#455a64"></path><path d="M542.93,336.67c-.06,0-.1-.23-.1-.5s.06-.5.12-.5.1.22.09.5S543,336.67,542.93,336.67Z" style="fill:#455a64"></path><path d="M542.88,338.67c-.06,0-.1-.22-.09-.5s.06-.5.11-.5.1.23.1.51S542.94,338.68,542.88,338.67Z" style="fill:#455a64"></path><path d="M542.84,340.68c-.06,0-.1-.23-.1-.5s.06-.5.12-.5.1.22.09.5S542.89,340.68,542.84,340.68Z" style="fill:#455a64"></path><path d="M542.79,342.68s-.1-.22-.09-.5.06-.5.11-.5.1.23.1.5S542.85,342.68,542.79,342.68Z" style="fill:#455a64"></path><path d="M542.75,344.69c-.06,0-.1-.23-.09-.51s.05-.5.11-.49.1.22.09.5S542.81,344.69,542.75,344.69Z" style="fill:#455a64"></path><path d="M542.71,346.69c-.06,0-.1-.22-.1-.5s.06-.5.12-.5.1.23.09.5S542.76,346.69,542.71,346.69Z" style="fill:#455a64"></path><path d="M542.67,348.7c-.06,0-.1-.23-.1-.5s.06-.51.12-.5.1.22.09.5S542.72,348.7,542.67,348.7Z" style="fill:#455a64"></path><path d="M542.62,350.7s-.09-.22-.09-.5.06-.5.12-.5.09.23.09.5S542.68,350.71,542.62,350.7Z" style="fill:#455a64"></path><path d="M542.58,352.71c-.05,0-.1-.23-.09-.5s.06-.5.11-.5.1.22.1.5S542.64,352.71,542.58,352.71Z" style="fill:#455a64"></path><path d="M542.54,354.72s-.1-.23-.09-.51.06-.5.11-.5.1.23.1.51S542.6,354.72,542.54,354.72Z" style="fill:#455a64"></path><path d="M542.5,356.72s-.09-.23-.09-.5.06-.5.11-.5.1.22.1.5S542.56,356.72,542.5,356.72Z" style="fill:#455a64"></path><path d="M542.47,358.73c-.06,0-.1-.23-.1-.51s.06-.5.12-.5.1.23.09.51S542.52,358.73,542.47,358.73Z" style="fill:#455a64"></path><path d="M542.43,360.73c-.06,0-.1-.22-.1-.5s.06-.5.12-.5.1.23.09.5S542.48,360.73,542.43,360.73Z" style="fill:#455a64"></path><path d="M542.39,362.74c-.06,0-.1-.23-.1-.5s.06-.5.12-.5.1.22.09.5S542.45,362.74,542.39,362.74Z" style="fill:#455a64"></path><path d="M542.35,364.75c-.06,0-.1-.23-.09-.51s0-.5.11-.5.1.23.09.51S542.41,364.75,542.35,364.75Z" style="fill:#455a64"></path><path d="M542.31,366.75s-.1-.22-.09-.5,0-.5.11-.5.1.22.1.5S542.37,366.75,542.31,366.75Z" style="fill:#455a64"></path><path d="M542.28,368.76c-.06,0-.1-.23-.1-.51s.06-.5.11-.5.1.23.1.51S542.33,368.76,542.28,368.76Z" style="fill:#455a64"></path><path d="M542.24,370.76c-.06,0-.1-.22-.1-.5s.06-.5.12-.5.1.23.09.5S542.3,370.77,542.24,370.76Z" style="fill:#455a64"></path><path d="M542.2,372.77c-.06,0-.1-.23-.09-.5s0-.5.11-.5.1.22.1.5S542.26,372.77,542.2,372.77Z" style="fill:#455a64"></path><path d="M542.17,374.78c-.06,0-.1-.23-.1-.51s.06-.5.11-.5.1.23.1.51S542.22,374.78,542.17,374.78Z" style="fill:#455a64"></path><path d="M542.13,376.78c-.06,0-.1-.22-.1-.5s.06-.5.12-.5.1.23.09.5S542.19,376.78,542.13,376.78Z" style="fill:#455a64"></path><path d="M542.09,378.79c-.06,0-.1-.23-.09-.5s0-.51.11-.5.1.22.1.5S542.15,378.79,542.09,378.79Z" style="fill:#455a64"></path><path d="M542.06,380.8c-.06,0-.1-.23-.1-.51s.06-.5.11-.5.1.23.1.51S542.11,380.8,542.06,380.8Z" style="fill:#455a64"></path><path d="M542,382.8c-.06,0-.1-.23-.1-.5s.06-.5.12-.5.1.22.09.5S542.08,382.8,542,382.8Z" style="fill:#455a64"></path><path d="M542,384.81c-.06,0-.1-.23-.09-.51s.05-.5.11-.5.1.23.1.51S542,384.81,542,384.81Z" style="fill:#455a64"></path><path d="M541.94,386.81c-.05,0-.1-.22-.09-.5s.06-.5.11-.5.1.23.1.5S542,386.81,541.94,386.81Z" style="fill:#455a64"></path><path d="M541.91,388.82c-.06,0-.1-.23-.1-.5s.06-.5.12-.5.1.22.09.5S542,388.82,541.91,388.82Z" style="fill:#455a64"></path><path d="M541.87,390.82c-.06,0-.1-.22-.09-.5s.05-.5.11-.5.1.23.09.51S541.93,390.83,541.87,390.82Z" style="fill:#455a64"></path><path d="M541.83,392.83c-.05,0-.1-.23-.09-.5s0-.5.11-.5.1.22.1.5S541.89,392.83,541.83,392.83Z" style="fill:#455a64"></path><path d="M541.8,394.84c-.06,0-.1-.23-.1-.51s.06-.5.11-.5.1.23.1.51S541.85,394.84,541.8,394.84Z" style="fill:#455a64"></path><path d="M541.76,396.84c-.06,0-.1-.22-.1-.5s.06-.5.12-.5.1.23.09.5S541.81,396.84,541.76,396.84Z" style="fill:#455a64"></path><path d="M541.72,398.85c-.06,0-.1-.23-.1-.51s.06-.5.12-.5.1.23.09.51S541.78,398.85,541.72,398.85Z" style="fill:#455a64"></path><path d="M541.68,400.85c-.06,0-.1-.22-.09-.5s0-.5.11-.5.1.23.09.5S541.74,400.85,541.68,400.85Z" style="fill:#455a64"></path><path d="M541.64,402.86c-.06,0-.1-.23-.09-.51s.05-.5.11-.5.1.23.09.51S541.7,402.86,541.64,402.86Z" style="fill:#455a64"></path><path d="M541.6,404.86c-.06,0-.1-.23-.09-.5s0-.5.11-.5.1.23.1.5S541.66,404.86,541.6,404.86Z" style="fill:#455a64"></path><path d="M541.56,406.87c-.06,0-.1-.23-.09-.51s0-.5.11-.5.1.23.09.51S541.62,406.87,541.56,406.87Z" style="fill:#455a64"></path><path d="M541.52,408.87c-.06,0-.1-.23-.09-.5s.05-.5.11-.5.1.22.09.5S541.58,408.87,541.52,408.87Z" style="fill:#455a64"></path><path d="M541.48,410.87c-.06,0-.1-.22-.1-.5s.06-.5.12-.5.1.23.09.51S541.54,410.88,541.48,410.87Z" style="fill:#455a64"></path><path d="M541.44,412.88c-.06,0-.1-.23-.1-.51s.06-.5.12-.49.1.22.09.5S541.49,412.88,541.44,412.88Z" style="fill:#455a64"></path><path d="M541.39,414.88s-.1-.23-.09-.5.06-.5.12-.5.09.23.09.5S541.45,414.88,541.39,414.88Z" style="fill:#455a64"></path><path d="M541.35,416.88c-.06,0-.1-.22-.09-.5s0-.5.11-.5.1.23.1.51S541.41,416.89,541.35,416.88Z" style="fill:#455a64"></path><path d="M541.31,418.89c-.06,0-.1-.23-.1-.51s.06-.5.12-.49.1.22.09.5S541.36,418.89,541.31,418.89Z" style="fill:#455a64"></path><path d="M541.26,420.89c-.06,0-.1-.23-.09-.5s.06-.5.11-.5.1.23.1.5S541.32,420.89,541.26,420.89Z" style="fill:#455a64"></path><path d="M541.22,422.89c-.06,0-.1-.22-.1-.5s.06-.5.12-.5.1.23.09.5S541.27,422.89,541.22,422.89Z" style="fill:#455a64"></path><path d="M541.17,424.89c-.06,0-.1-.22-.09-.5s0-.5.11-.5.1.23.09.51S541.23,424.9,541.17,424.89Z" style="fill:#455a64"></path><path d="M541.12,426.9c-.06,0-.1-.23-.09-.51s.06-.5.11-.49.1.22.1.5S541.18,426.9,541.12,426.9Z" style="fill:#455a64"></path><path d="M541.07,428.9c-.06,0-.1-.23-.09-.51s.06-.49.12-.49.09.22.09.5S541.13,428.9,541.07,428.9Z" style="fill:#455a64"></path><path d="M541,430.9c-.06,0-.1-.23-.09-.5s.06-.5.12-.5.1.22.09.5S541.08,430.9,541,430.9Z" style="fill:#455a64"></path><path d="M541,432.9c-.06,0-.1-.23-.09-.5s.06-.5.12-.5.1.23.09.5S541,432.9,541,432.9Z" style="fill:#455a64"></path><path d="M540.92,434.9c-.06,0-.1-.23-.09-.5s.06-.5.12-.5.09.23.09.5S541,434.9,540.92,434.9Z" style="fill:#455a64"></path><path d="M540.87,436.9c-.06,0-.1-.23-.09-.5s.06-.5.11-.5.1.23.09.5S540.92,436.9,540.87,436.9Z" style="fill:#455a64"></path><path d="M540.82,438.8c-.06,0-.1-.2-.1-.45s.06-.45.12-.45.1.2.09.45S540.87,438.81,540.82,438.8Z" style="fill:#455a64"></path><path d="M539.19,209.27c-.11-2-.66-10.86-.66-10.86s-6.26-.39-6.91-6.55-.91-20.44-.91-20.44h0a21.75,21.75,0,0,1,21.86.62l1.56,1,.17,7.25-.36,6.52-.27,17.74-14.45,4.78S539.19,209.29,539.19,209.27Z" style="fill:#e5baab"></path><path d="M531.67,181.32a.79.79,0,0,0,.82.76.79.79,0,1,0-.82-.76Z" style="fill:#263238"></path><path d="M531.61,181.05c.11.1.67-.43,1.52-.51s1.5.3,1.59.18-.07-.24-.36-.42a2.14,2.14,0,0,0-1.29-.27,2,2,0,0,0-1.19.54C531.63,180.8,531.56,181,531.61,181.05Z" style="fill:#263238"></path><path d="M541.37,180.29a.77.77,0,0,0-.15,1.1.8.8,0,0,0,1.11.16.79.79,0,1,0-1-1.26Z" style="fill:#263238"></path><path d="M541.05,180.63c.11.1.67-.42,1.52-.51s1.51.3,1.59.18-.07-.23-.36-.41a2,2,0,0,0-1.28-.28,2.07,2.07,0,0,0-1.2.54C541.07,180.38,541,180.59,541.05,180.63Z" style="fill:#263238"></path><path d="M538.3,188a4.67,4.67,0,0,1-1.4.17.73.73,0,0,1-.79-.33,1.36,1.36,0,0,1,0-.92c.16-.63.31-1.2.47-1.8a24.92,24.92,0,0,1,1.49-4.55,25.68,25.68,0,0,1-1.05,4.67c-.17.59-.33,1.17-.51,1.79a1.15,1.15,0,0,0-.1.66c0,.13.22.16.44.16A4.77,4.77,0,0,1,538.3,188Z" style="fill:#263238"></path><path d="M541.15,188.64c.83-.61-2.32,1.53-4.06,1.6a2.35,2.35,0,0,0,2.86.68C541.73,190.07,541.15,188.64,541.15,188.64Z" style="fill:#fff"></path><path d="M538.53,198.53a15.46,15.46,0,0,0,8.07-3.13s-1.66,4.62-7.87,4.64Z" style="fill:#d78776"></path><path d="M550.88,167.8a24.33,24.33,0,0,0-5.69-3.58,8.31,8.31,0,0,0-6.56-.1c-.93.44-1.75,1.11-2.72,1.49-2,.79-4.52.2-6.29,1.46a4.28,4.28,0,0,0-1,5.37,6.36,6.36,0,0,0,4.86,3.06,13,13,0,0,0,5.86-.85,5,5,0,0,1,3.4-.43c1,.41,1.76,1.55,2.87,1.65s2.11-.63,2.82,0a2,2,0,0,1,.45,1.08c.38,2.13,1.63,6.43,2,8.55,1.4.61,2.06-1.27,3.58-1.3.24-4.7,2.27-9.43,1.08-14a4.79,4.79,0,0,0-1.79-2.9,2.38,2.38,0,0,0-3.14.35" style="fill:#263238"></path><path d="M551.84,179.31c.11-.07,4.13-1.55,4.85,3.43s-4.55,4.06-4.58,3.92S551.84,179.31,551.84,179.31Z" style="fill:#e5baab"></path><path d="M553.39,184.69s.09.05.25.09a.83.83,0,0,0,.65-.08,2.16,2.16,0,0,0,.71-2.07,3,3,0,0,0-.42-1.21,1,1,0,0,0-.75-.57.46.46,0,0,0-.48.31c0,.15,0,.25,0,.26s-.12-.07-.11-.28a.6.6,0,0,1,.15-.34.7.7,0,0,1,.46-.2,1.25,1.25,0,0,1,1,.65,2.88,2.88,0,0,1,.5,1.34,2.28,2.28,0,0,1-1,2.34,1,1,0,0,1-.82,0C553.41,184.81,553.37,184.7,553.39,184.69Z" style="fill:#d78776"></path><path d="M549.82,164.47c.14,0,.44.75.67,1.76s.31,1.85.17,1.88-.45-.76-.68-1.76S549.68,164.5,549.82,164.47Z" style="fill:#263238"></path><path d="M552,164.71c.13,0-.09.86-.5,1.8s-.84,1.66-1,1.6.1-.87.5-1.81S551.88,164.65,552,164.71Z" style="fill:#263238"></path><path d="M539.93,243.27a11,11,0,0,1-1.77,3.93c-2.83,3.1-27.39-23.58-27.39-23.58a29.34,29.34,0,0,1-.19-5.21,12.93,12.93,0,0,1,1.06-3.3c.56-.91-.28-2-1.18-1.66s-2.5,2.84-2.9,6.26-4-.83-5.11-2.48-4.83-6.62-5.6-6.68c-1.14-.1-1.25,1.28-.13,2.91s4.33,6.43,3.92,6.74c-.82.62-6.58-7.77-6.58-7.77s-.89-1.74-1.95-1.16c-1.91,1,4.49,9.59,5.12,10.39.44.55-.19.77-.63.15s-5.57-7.89-6.92-7,4.29,7,5.05,8.73c.86,2-4.6-5.3-6-4.48-.52.31-.87.61,2.43,4.52a135.48,135.48,0,0,0,10.6,10.14c7,8.29,31.09,35.87,42.37,34.32a8.34,8.34,0,0,0,6.2-3.87A87.27,87.27,0,0,0,558,249.4Z" style="fill:#e5baab"></path></g><g id="freepik--character-1--inject-11"><path d="M274.5,444.66l-.22-9.18-17.19.31.19,13.42,1.06.05c4.75.18,24.15.58,27.3-.44C289.16,447.69,274.5,444.66,274.5,444.66Z" style="fill:#3A75FD"></path><path d="M263.43,449a5.93,5.93,0,0,0-2.26-3.62,5.77,5.77,0,0,0-4-1.18l.09,4.8Z" style="fill:#263238"></path><path d="M281.67,446.39s5.14,1.39,4.52,2.24-20.25,1.19-28.91.58l0-.38,22.89-.2S280.67,446.45,281.67,446.39Z" style="fill:#263238"></path><path d="M257,448.82h4.27c2.64,0,6.28,0,10.31-.06s7.67-.18,10.31-.28l3.12-.11.85,0a1.36,1.36,0,0,1,.3,0l-.29,0-.85.07-3.12.18c-2.64.14-6.29.28-10.32.34s-7.67,0-10.31,0l-3.13-.08-.85,0Z" style="fill:#455a64"></path><path d="M280.19,448.9a2.33,2.33,0,0,1,.38-1.61,2.36,2.36,0,0,1,1.22-1.11,7.59,7.59,0,0,0-1,1.22A6.81,6.81,0,0,0,280.19,448.9Z" style="fill:#455a64"></path><path d="M275.07,446.41c-.05,0,.11-.37.36-.77s.48-.7.53-.67-.11.38-.36.77S275.12,446.44,275.07,446.41Z" style="fill:#455a64"></path><path d="M273.67,445.7s.16-.29.46-.57.56-.45.59-.41-.16.3-.45.57S273.71,445.74,273.67,445.7Z" style="fill:#455a64"></path><path d="M272.76,444.09a2.2,2.2,0,0,1,.9-.1,2.14,2.14,0,0,1,.9.09,1.94,1.94,0,0,1-.9.11A1.86,1.86,0,0,1,272.76,444.09Z" style="fill:#455a64"></path><path d="M272.44,443a5,5,0,0,1,1,.06,6.33,6.33,0,0,1,1,.05,1.66,1.66,0,0,1-1,.16A1.73,1.73,0,0,1,272.44,443Z" style="fill:#455a64"></path><path d="M275.63,444.9s.42,0,1.08-.17a7,7,0,0,0,1.13-.31,3.46,3.46,0,0,0,.62-.28c.19-.12.26-.33.08-.45a1.73,1.73,0,0,0-1.32-.07,2,2,0,0,0-.93.63,3.22,3.22,0,0,0-.49.95.63.63,0,0,1,0-.3,2.09,2.09,0,0,1,.35-.74,2,2,0,0,1,2.5-.64.46.46,0,0,1,.17.44.58.58,0,0,1-.27.35,3.09,3.09,0,0,1-.66.29,7.57,7.57,0,0,1-1.18.28A3,3,0,0,1,275.63,444.9Z" style="fill:#455a64"></path><path d="M275.92,445a4.57,4.57,0,0,0,0-.74,1.81,1.81,0,0,0-.33-.71c-.17-.22-.46-.49-.73-.46s-.17.47,0,.7a3.76,3.76,0,0,0,.47.66c.31.34.55.51.53.54a1.76,1.76,0,0,1-.64-.44,3.17,3.17,0,0,1-.53-.66,1.29,1.29,0,0,1-.2-.49.44.44,0,0,1,.34-.51,1.11,1.11,0,0,1,.93.54,1.78,1.78,0,0,1,.31.81A1.1,1.1,0,0,1,275.92,445Z" style="fill:#455a64"></path><path d="M257.3,444.12s.11-.05.33-.09a5.15,5.15,0,0,1,.95,0,5.31,5.31,0,0,1,2.9,1.08,5.24,5.24,0,0,1,1.79,2.53,4.56,4.56,0,0,1,.2.92,1.33,1.33,0,0,1,0,.35s-.08-.49-.35-1.22a5.36,5.36,0,0,0-4.56-3.51A11.24,11.24,0,0,0,257.3,444.12Z" style="fill:#455a64"></path><path d="M259,436.93a32.48,32.48,0,0,1,.12,3.53A34.71,34.71,0,0,1,259,444a29.69,29.69,0,0,1-.12-3.53A29,29,0,0,1,259,436.93Z" style="fill:#455a64"></path><path d="M265.64,447.26c0-.06,1.13,0,2.51,0s2.5-.09,2.51,0a10.11,10.11,0,0,1-2.51.24A10.28,10.28,0,0,1,265.64,447.26Z" style="fill:#455a64"></path><path d="M262.27,447.31s.26.11.4.4.12.57.06.57-.12-.23-.24-.48S262.23,447.35,262.27,447.31Z" style="fill:#455a64"></path><path d="M261,445.75s.22.07.4.25.3.35.26.39-.22-.07-.4-.24S260.93,445.79,261,445.75Z" style="fill:#455a64"></path><path d="M259.15,445.06c0-.05.24-.16.55-.06s.47.34.42.37-.22-.09-.48-.17S259.16,445.12,259.15,445.06Z" style="fill:#455a64"></path><path d="M257.85,444.74c0-.05.15-.05.29,0s.25.14.23.19-.16.06-.3,0S257.83,444.8,257.85,444.74Z" style="fill:#455a64"></path><path d="M334.7,187.29s14.66-15.15,16-14.48-5.38,6.84-4.49,7.64,8,6.17-3.43,14.69Z" style="fill:#e5baab"></path><path d="M347.32,182.9a3,3,0,0,1-.23.44c-.23.38-.47.77-.71,1.18s-.71,1.12-1.08,1.72a2.43,2.43,0,0,1-.86.89,1.08,1.08,0,0,1-1.31-.19,1.15,1.15,0,0,1,.08-1.32c.22-.37.44-.69.65-1,.39-.59.76-1.15,1.11-1.7l.77-1.14a2.48,2.48,0,0,1,.3-.4,1.77,1.77,0,0,1-.23.45L345.1,183c-.35.55-.7,1.13-1.08,1.73l-.63,1a1,1,0,0,0-.1,1.09.89.89,0,0,0,1,.14,2.3,2.3,0,0,0,.8-.81l1.11-1.7.77-1.14A2,2,0,0,1,347.32,182.9Z" style="fill:#d78776"></path><path d="M348.07,184.56a1.56,1.56,0,0,1-.06.43,6.26,6.26,0,0,1-.37,1.13,6.56,6.56,0,0,1-.95,1.49,2.62,2.62,0,0,1-.81.69.91.91,0,0,1-1.14-.1,1.12,1.12,0,0,1-.15-1.16,3.79,3.79,0,0,1,.55-.9c.37-.53.68-1,.94-1.46a11.45,11.45,0,0,1,.65-1,2.21,2.21,0,0,1,.28-.34,2.44,2.44,0,0,1-.21.38c-.2.34-.4.68-.59,1s-.54.95-.91,1.5a4.48,4.48,0,0,0-.52.86,1,1,0,0,0,.11.95.73.73,0,0,0,.9.06,2.59,2.59,0,0,0,.76-.64,6.8,6.8,0,0,0,.95-1.43A12.07,12.07,0,0,0,348.07,184.56Z" style="fill:#d78776"></path><path d="M339.23,184.16l5.37-.36a1,1,0,0,1,.3,0c.28.1.33.49.26.79a3,3,0,0,1-1.87,2,8.83,8.83,0,0,1-2.76.47l-2.58.15" style="fill:#e5baab"></path><path d="M338,187.19a3.61,3.61,0,0,1,.58-.07l1.58-.13a18.26,18.26,0,0,0,2.32-.26,3.61,3.61,0,0,0,2.32-1.44c.25-.39.46-.93.24-1.27-.1-.17-.33-.12-.57-.11l-.68.05-2.34.13-1.59.08a2.39,2.39,0,0,1-.58,0,3.61,3.61,0,0,1,.58-.07l1.58-.14,2.34-.19.68,0a2.06,2.06,0,0,1,.36,0,.51.51,0,0,1,.39.19,1,1,0,0,1,.09.8,2.88,2.88,0,0,1-.32.72,3.82,3.82,0,0,1-2.46,1.51,16.84,16.84,0,0,1-2.35.22l-1.58.06A2.51,2.51,0,0,1,338,187.19Z" style="fill:#d78776"></path><path d="M349,186s-.05.11-.13.32a7.83,7.83,0,0,0-.27.89,4.94,4.94,0,0,1-.5,1.31,2,2,0,0,1-.6.62.76.76,0,0,1-.48.11.65.65,0,0,1-.43-.29,1.06,1.06,0,0,1-.06-.93c.1-.28.23-.52.33-.77l.58-1.26a9.55,9.55,0,0,1,.57-1.14,6.92,6.92,0,0,1-.44,1.2l-.53,1.28c-.18.47-.57,1-.27,1.51a.42.42,0,0,0,.63.11,1.85,1.85,0,0,0,.54-.54,5.18,5.18,0,0,0,.52-1.26A2.78,2.78,0,0,1,349,186Z" style="fill:#d78776"></path><path d="M342.17,191.49c-.06,0,.23-1,.3-2.29s-.07-2.29,0-2.3a6.11,6.11,0,0,1,.21,2.32A5.86,5.86,0,0,1,342.17,191.49Z" style="fill:#d78776"></path><path d="M272.44,182.24a11.43,11.43,0,0,0,5.44,9.71,24.34,24.34,0,0,1,2.7,1.61,3.38,3.38,0,0,1,1.45,2.65c-.07,1.63-1.73,2.67-3.18,3.41a4.05,4.05,0,1,1-5.83,5.61,7.47,7.47,0,0,1-5.48,6.61,10.41,10.41,0,0,1-8.71-1.78,17.59,17.59,0,0,1-5.54-7.2" style="fill:#263238"></path><path d="M265,210.83c-.27-1.54.36-8,.36-8s5.93-.63,6.29-6.51,0-19.46,0-19.46l-10.8-5.28-11.89,9,1.8,29.41Z" style="fill:#e5baab"></path><path d="M270.49,186.71a.75.75,0,1,1-.75-.75A.75.75,0,0,1,270.49,186.71Z" style="fill:#263238"></path><path d="M271.22,185.89c-.09.1-.65-.37-1.46-.42s-1.42.35-1.51.24.06-.23.33-.41a2,2,0,0,1,1.21-.32,2,2,0,0,1,1.16.47C271.19,185.66,271.27,185.85,271.22,185.89Z" style="fill:#263238"></path><path d="M261.77,186.71A.76.76,0,1,1,261,186,.76.76,0,0,1,261.77,186.71Z" style="fill:#263238"></path><path d="M262.24,185.89c-.1.1-.66-.37-1.47-.42s-1.42.35-1.5.24.06-.23.32-.41a2,2,0,0,1,1.21-.32,2,2,0,0,1,1.16.47C262.2,185.66,262.28,185.85,262.24,185.89Z" style="fill:#263238"></path><path d="M265.16,192.69a5.91,5.91,0,0,1,1.32-.16c.2,0,.41,0,.46-.19a1,1,0,0,0-.11-.65l-.55-1.67c-.39-1.19-.72-2.27-.95-3.06a5.88,5.88,0,0,1-.3-1.29,6.14,6.14,0,0,1,.51,1.22c.28.77.65,1.84,1,3,.18.58.35,1.13.53,1.68a1.25,1.25,0,0,1,.07.84.67.67,0,0,1-.69.31A6.08,6.08,0,0,1,265.16,192.69Z" style="fill:#263238"></path><path d="M262.48,193.51c-.82-.55,2.27,1.35,3.92,1.35a2.25,2.25,0,0,1-2.69.76C262,194.89,262.48,193.51,262.48,193.51Z" style="fill:#fff"></path><path d="M265.38,202.79a14.69,14.69,0,0,1-7.79-2.64s1.76,4.32,7.66,4.08Z" style="fill:#d78776"></path><path d="M269.2,172.5c-5.84-6.06-9.84-4.8-12.13-4.8a18.37,18.37,0,0,0-12.74,7.37h0c-1.63,1.7-4,7.21-4.22,9.15a46.32,46.32,0,0,0,0,5.89c0,2-.46,4.08-1.93,5.38-.93.83-2.24,1.31-2.8,2.42a3.12,3.12,0,0,0,1.29,3.77,7.06,7.06,0,0,0,4.2.86,6,6,0,0,0,4.8,6.32,5.77,5.77,0,0,0,4.22-1.11,33.89,33.89,0,0,0,3.13,2.7q.36-12.85-.54-25.69c3.93-.69,11-2.81,12.19-9.1,1.57,3.58,3.95,5.53,7.11,8.25C271.83,183.9,275,178.56,269.2,172.5Z" style="fill:#263238"></path><path d="M253,182.48a9.35,9.35,0,0,1,2.41,0,12.49,12.49,0,0,0,5.58-.66,5.19,5.19,0,0,0,2.33-1.89,6.44,6.44,0,0,0,.93-2.31c.28-1.43.14-2.36.23-2.36a4.73,4.73,0,0,1,.14,2.42,6.42,6.42,0,0,1-.9,2.52,5.49,5.49,0,0,1-2.52,2.1,11.38,11.38,0,0,1-5.82.54A11.9,11.9,0,0,1,253,182.48Z" style="fill:#263238"></path><path d="M237.64,196.89a4.53,4.53,0,0,0,1-.14,2.6,2.6,0,0,0,1.6-1.91,6.44,6.44,0,0,0-.72-3.81,15,15,0,0,1-.83-2.29,7.79,7.79,0,0,1-.17-2.65,10.84,10.84,0,0,1,1.76-4.74,18.57,18.57,0,0,1,2.65-3.13c.84-.81,1.57-1.41,2.07-1.81a3.68,3.68,0,0,1,.82-.59c.06.06-1,1-2.63,2.66a20,20,0,0,0-2.51,3.13,10.81,10.81,0,0,0-1.64,4.54,7.51,7.51,0,0,0,.14,2.47,15.88,15.88,0,0,0,.79,2.23,6.6,6.6,0,0,1,.63,4.08,2.77,2.77,0,0,1-1.9,2,1.92,1.92,0,0,1-.77,0A.63.63,0,0,1,237.64,196.89Z" style="fill:#263238"></path><path d="M280.38,188.48s.19.21.18.7a2.2,2.2,0,0,1-1,1.73,3,3,0,0,1-2.95,0,6.2,6.2,0,0,1-2.49-2.6,16,16,0,0,1-2.06-6.08,7.94,7.94,0,0,1,0-2.66c.09,0,.11,1,.4,2.61a18.15,18.15,0,0,0,2.15,5.87,6,6,0,0,0,2.26,2.43,2.67,2.67,0,0,0,2.54.08,2.08,2.08,0,0,0,1-1.43C280.43,188.74,280.34,188.49,280.38,188.48Z" style="fill:#263238"></path><path d="M271.28,281s20,65.07,18.78,86.09-15.94,73.19-15.94,73.19Z" style="fill:#263238"></path><path d="M243,269.92c-.44-.12-9.24,12.8-9.53,23.91a30,30,0,0,0,.12,3.26,41.39,41.39,0,0,0,2.77,11.33c7.44,18.77,15.1,41,15.23,46.1C251.94,370.15,255,442,255,442l21.6-1.53-.71-85.92-5.26-85.32Z" style="fill:#263238"></path><path d="M254.77,269.55c.13,0,.18,2.4.18,6.76s-.2,10.67.09,18.45c.08,1.95.15,4,.32,6.11s.33,4.33.56,6.6c.48,4.56,1.13,9.41,1.94,14.5s1.73,10.42,2.51,16,1.39,11.33,1.72,17.28.27,11.75.38,17.36.22,11,.37,16.17c.3,10.3.66,19.58,1,27.36l.68,18.45c.07,2.16.12,3.85.16,5s0,1.75,0,1.75c-.05-1.41-.4-9.92-1-25.21-.32-7.79-.7-17.06-1-27.37-.15-5.15-.28-10.56-.37-16.17s0-11.42-.39-17.35S261,343.53,260.17,338s-1.69-10.89-2.5-16-1.45-9.95-1.92-14.51c-.23-2.28-.42-4.48-.55-6.61s-.23-4.16-.31-6.11c-.27-7.8,0-14.11,0-18.47,0-2.17,0-3.87,0-5A7.83,7.83,0,0,0,254.77,269.55Z" style="fill:#455a64"></path><rect x="254.87" y="438.88" width="21.72" height="3.27" style="fill:#455a64"></rect><path d="M256.24,270.21c-.06,0-.11-.22-.12-.5s0-.5.09-.5.11.22.12.5S256.29,270.21,256.24,270.21Z" style="fill:#455a64"></path><path d="M256.29,272.21c-.05,0-.11-.22-.11-.5s0-.5.09-.5.11.22.11.5S256.35,272.21,256.29,272.21Z" style="fill:#455a64"></path><path d="M256.35,274.21c-.05,0-.11-.22-.12-.5s0-.5.09-.5.11.22.12.5S256.41,274.21,256.35,274.21Z" style="fill:#455a64"></path><path d="M256.41,276.21c-.06,0-.11-.22-.12-.5s0-.5.09-.5.11.22.12.5S256.47,276.21,256.41,276.21Z" style="fill:#455a64"></path><path d="M256.47,278.21c-.06,0-.11-.22-.12-.5s0-.5.09-.5.11.22.12.5S256.53,278.21,256.47,278.21Z" style="fill:#455a64"></path><path d="M256.53,280.21c-.06,0-.11-.22-.12-.5s0-.5.09-.5.11.22.12.49S256.59,280.21,256.53,280.21Z" style="fill:#455a64"></path><path d="M256.59,282.21c-.06,0-.11-.22-.12-.5s0-.5.09-.5.11.22.12.49S256.64,282.2,256.59,282.21Z" style="fill:#455a64"></path><path d="M256.65,284.21c-.06,0-.12-.23-.12-.5s0-.5.09-.5.11.22.12.49S256.7,284.2,256.65,284.21Z" style="fill:#455a64"></path><path d="M256.7,286.2c-.05,0-.11-.22-.11-.49s0-.5.08-.51.12.23.12.5S256.76,286.2,256.7,286.2Z" style="fill:#455a64"></path><path d="M256.76,288.2c-.06,0-.11-.22-.12-.49s0-.5.09-.51.11.22.12.5S256.82,288.2,256.76,288.2Z" style="fill:#455a64"></path><path d="M256.82,290.2c-.06,0-.11-.22-.12-.49s0-.51.09-.51.11.22.12.5S256.88,290.2,256.82,290.2Z" style="fill:#455a64"></path><path d="M256.83,292.21c-.06,0-.1-.23-.11-.5s0-.5.11-.51.1.23.1.51S256.89,292.21,256.83,292.21Z" style="fill:#455a64"></path><path d="M256.86,294.21c-.06,0-.11-.22-.11-.5s0-.5.09-.5.11.22.11.5S256.92,294.21,256.86,294.21Z" style="fill:#455a64"></path><path d="M256.9,296.21s-.11-.22-.11-.49,0-.51.09-.51.11.22.11.5S257,296.21,256.9,296.21Z" style="fill:#455a64"></path><path d="M257,298.22c-.06,0-.11-.22-.12-.5s0-.5.08-.51.12.23.13.5S257,298.21,257,298.22Z" style="fill:#455a64"></path><path d="M257.05,300.22c-.05,0-.11-.22-.12-.5s0-.5.08-.5.11.22.13.49S257.11,300.21,257.05,300.22Z" style="fill:#455a64"></path><path d="M257.16,302.22c-.06,0-.11-.22-.13-.5s0-.5.08-.5.11.21.13.49S257.22,302.21,257.16,302.22Z" style="fill:#455a64"></path><path d="M257.29,304.21c-.06,0-.12-.21-.14-.49s0-.5.07-.51.12.22.14.5S257.35,304.21,257.29,304.21Z" style="fill:#455a64"></path><path d="M257.44,306.21c-.06,0-.12-.22-.14-.49s0-.5.06-.51.12.22.15.49S257.5,306.2,257.44,306.21Z" style="fill:#455a64"></path><path d="M257.62,308.2c-.06,0-.13-.21-.15-.49s0-.5.06-.5.12.21.14.49S257.67,308.2,257.62,308.2Z" style="fill:#455a64"></path><path d="M257.81,310.19c-.06,0-.12-.21-.15-.48s0-.51,0-.51.13.21.15.49S257.87,310.19,257.81,310.19Z" style="fill:#455a64"></path><path d="M258,312.18c-.06,0-.13-.21-.16-.48s0-.51.05-.51.13.21.16.48S258.09,312.18,258,312.18Z" style="fill:#455a64"></path><path d="M258.27,314.17c-.06,0-.13-.21-.17-.49s0-.5,0-.51.13.21.16.49S258.33,314.16,258.27,314.17Z" style="fill:#455a64"></path><path d="M258.53,316.15c-.06,0-.13-.21-.17-.48s0-.51,0-.51.13.2.17.48S258.59,316.14,258.53,316.15Z" style="fill:#455a64"></path><path d="M258.81,318.12c-.06,0-.14-.21-.18-.48s0-.5,0-.51.13.21.17.48S258.86,318.11,258.81,318.12Z" style="fill:#455a64"></path><path d="M259.1,320.09c-.05,0-.13-.2-.18-.48s0-.5,0-.5.14.2.18.47S259.16,320.08,259.1,320.09Z" style="fill:#455a64"></path><path d="M259.41,322.07c-.05,0-.14-.21-.18-.48s0-.5,0-.51.13.21.18.48S259.47,322.06,259.41,322.07Z" style="fill:#455a64"></path><path d="M259.73,324c-.05,0-.14-.2-.18-.48s0-.5,0-.51.14.21.19.48S259.79,324,259.73,324Z" style="fill:#455a64"></path><path d="M260.06,326c-.05,0-.14-.21-.18-.48s0-.5,0-.51.14.21.18.48S260.12,326,260.06,326Z" style="fill:#455a64"></path><path d="M260.4,328c-.06,0-.14-.21-.19-.48s0-.5,0-.51.14.2.19.48S260.45,328,260.4,328Z" style="fill:#455a64"></path><path d="M260.73,329.94c-.06,0-.14-.2-.18-.47s0-.5,0-.51.14.2.19.47S260.79,329.93,260.73,329.94Z" style="fill:#455a64"></path><path d="M261.06,331.91c-.05,0-.14-.21-.18-.48s0-.5,0-.51.14.21.18.48S261.12,331.9,261.06,331.91Z" style="fill:#455a64"></path><path d="M261.39,333.87c-.06,0-.14-.2-.19-.47s0-.5,0-.51.14.2.18.48S261.44,333.86,261.39,333.87Z" style="fill:#455a64"></path><path d="M261.7,335.84c-.06,0-.14-.2-.18-.47s0-.5,0-.51.13.2.18.47S261.76,335.83,261.7,335.84Z" style="fill:#455a64"></path><path d="M262,337.81c-.05,0-.13-.2-.17-.47s0-.5,0-.51.14.2.18.47S262.06,337.8,262,337.81Z" style="fill:#455a64"></path><path d="M262.29,339.79c-.06,0-.14-.21-.18-.48s0-.5,0-.51.13.21.17.48S262.34,339.78,262.29,339.79Z" style="fill:#455a64"></path><path d="M262.55,341.76c-.05,0-.13-.2-.16-.48s0-.5,0-.51.14.21.17.48S262.61,341.76,262.55,341.76Z" style="fill:#455a64"></path><path d="M262.8,343.74c-.06,0-.13-.21-.16-.48s0-.5,0-.51.13.21.16.49S262.86,343.74,262.8,343.74Z" style="fill:#455a64"></path><path d="M263,345.73c-.06,0-.13-.21-.16-.49s0-.5.05-.51.12.21.15.49S263.08,345.72,263,345.73Z" style="fill:#455a64"></path><path d="M263.23,347.71c-.06,0-.13-.21-.15-.48s0-.5.05-.51.13.21.15.49S263.29,347.71,263.23,347.71Z" style="fill:#455a64"></path><path d="M263.41,349.7c-.06,0-.12-.21-.15-.49s0-.5.06-.5.13.21.15.49S263.47,349.7,263.41,349.7Z" style="fill:#455a64"></path><path d="M263.57,351.7c-.06,0-.12-.22-.14-.5s0-.5.06-.5.12.21.14.49S263.62,351.69,263.57,351.7Z" style="fill:#455a64"></path><path d="M263.7,353.69c-.06,0-.12-.22-.13-.49s0-.5.07-.51.12.22.13.49S263.76,353.69,263.7,353.69Z" style="fill:#455a64"></path><path d="M263.81,355.68c-.05,0-.11-.22-.13-.49s0-.5.08-.51.12.22.13.49S263.87,355.67,263.81,355.68Z" style="fill:#455a64"></path><path d="M263.9,357.67s-.11-.22-.12-.49,0-.5.08-.51.12.22.13.5S264,357.67,263.9,357.67Z" style="fill:#455a64"></path><path d="M264,359.67c-.05,0-.11-.22-.12-.5s0-.5.09-.5.11.22.12.49S264,359.66,264,359.67Z" style="fill:#455a64"></path><path d="M264,361.66s-.11-.22-.11-.49,0-.5.09-.51.11.23.12.5S264.08,361.66,264,361.66Z" style="fill:#455a64"></path><path d="M264.05,363.66c-.05,0-.1-.22-.11-.5s0-.5.1-.5.11.23.11.5S264.11,363.66,264.05,363.66Z" style="fill:#455a64"></path><path d="M264.07,365.67c-.06,0-.11-.23-.11-.5s0-.5.1-.5.11.22.11.5S264.13,365.67,264.07,365.67Z" style="fill:#455a64"></path><path d="M264.09,367.67c-.06,0-.11-.23-.11-.5s0-.5.1-.5.1.22.1.49S264.14,367.67,264.09,367.67Z" style="fill:#455a64"></path><path d="M264.11,369.67c-.06,0-.11-.23-.11-.5s0-.5.1-.5.1.22.11.49S264.16,369.66,264.11,369.67Z" style="fill:#455a64"></path><path d="M264.13,371.67c-.05,0-.1-.23-.11-.5s0-.5.1-.5.11.22.11.49S264.19,371.66,264.13,371.67Z" style="fill:#455a64"></path><path d="M264.17,373.67c-.06,0-.11-.23-.12-.5s0-.5.1-.5.11.22.11.49S264.22,373.66,264.17,373.67Z" style="fill:#455a64"></path><path d="M264.2,375.66c-.06,0-.11-.22-.11-.49s0-.5.09-.51.11.23.12.5S264.26,375.66,264.2,375.66Z" style="fill:#455a64"></path><path d="M264.24,377.66c-.06,0-.11-.22-.11-.49s0-.5.09-.51.11.23.11.5S264.3,377.66,264.24,377.66Z" style="fill:#455a64"></path><path d="M264.28,379.66s-.1-.22-.11-.49,0-.5.09-.51.11.23.12.5S264.34,379.66,264.28,379.66Z" style="fill:#455a64"></path><path d="M264.33,381.66c-.06,0-.11-.22-.11-.49s0-.51.09-.51.11.22.11.5S264.39,381.66,264.33,381.66Z" style="fill:#455a64"></path><path d="M264.38,383.66c-.06,0-.11-.22-.12-.49s0-.51.1-.51.11.22.11.5S264.44,383.66,264.38,383.66Z" style="fill:#455a64"></path><path d="M264.44,385.66c-.06,0-.11-.22-.12-.5s0-.5.09-.5.11.22.12.5S264.49,385.66,264.44,385.66Z" style="fill:#455a64"></path><path d="M264.49,387.66c-.06,0-.11-.22-.12-.5s0-.5.09-.5.11.22.12.5S264.55,387.66,264.49,387.66Z" style="fill:#455a64"></path><path d="M264.55,389.66c-.06,0-.11-.22-.12-.5s0-.5.09-.5.11.22.12.5S264.61,389.66,264.55,389.66Z" style="fill:#455a64"></path><path d="M264.61,391.66c-.05,0-.11-.22-.12-.5s0-.5.09-.5.11.22.12.5S264.67,391.66,264.61,391.66Z" style="fill:#455a64"></path><path d="M264.68,393.66c-.06,0-.11-.22-.12-.5s0-.5.09-.5.11.22.12.5S264.74,393.66,264.68,393.66Z" style="fill:#455a64"></path><path d="M264.75,395.66c-.06,0-.12-.22-.13-.5s0-.5.09-.5.11.22.12.49S264.8,395.66,264.75,395.66Z" style="fill:#455a64"></path><path d="M264.81,397.66c-.05,0-.11-.22-.12-.5s0-.5.09-.5.11.22.12.49S264.87,397.65,264.81,397.66Z" style="fill:#455a64"></path><path d="M264.89,399.65c-.06,0-.12-.22-.13-.49s0-.5.09-.5.11.22.12.49S264.94,399.65,264.89,399.65Z" style="fill:#455a64"></path><path d="M265,401.65c-.06,0-.11-.22-.12-.49s0-.5.08-.51.11.22.12.5S265,401.65,265,401.65Z" style="fill:#455a64"></path><path d="M265,403.65c-.06,0-.11-.22-.12-.49s0-.51.08-.51.12.22.13.5S265.09,403.65,265,403.65Z" style="fill:#455a64"></path><path d="M265.11,405.65c-.06,0-.12-.22-.13-.5s0-.5.09-.5.11.22.12.5S265.16,405.65,265.11,405.65Z" style="fill:#455a64"></path><path d="M265.18,407.65c-.05,0-.11-.22-.12-.5s0-.5.09-.5.11.22.12.5S265.24,407.65,265.18,407.65Z" style="fill:#455a64"></path><path d="M265.26,409.65c-.06,0-.11-.22-.12-.5s0-.5.08-.5.12.22.13.49S265.32,409.65,265.26,409.65Z" style="fill:#455a64"></path><path d="M265.34,411.65c-.06,0-.11-.22-.12-.5s0-.5.08-.5.11.22.12.49S265.4,411.64,265.34,411.65Z" style="fill:#455a64"></path><path d="M265.42,413.64c-.06,0-.11-.21-.12-.49s0-.5.08-.5.11.21.12.49S265.48,413.64,265.42,413.64Z" style="fill:#455a64"></path><path d="M265.5,415.64c-.06,0-.11-.22-.13-.49s0-.5.09-.51.11.22.12.5S265.56,415.64,265.5,415.64Z" style="fill:#455a64"></path><path d="M265.58,417.64c-.06,0-.12-.22-.13-.49s0-.51.09-.51.11.22.12.5S265.64,417.64,265.58,417.64Z" style="fill:#455a64"></path><path d="M265.66,419.64c-.06,0-.12-.22-.13-.5s0-.5.09-.5.11.22.12.5S265.71,419.64,265.66,419.64Z" style="fill:#455a64"></path><path d="M265.74,421.64c-.06,0-.12-.22-.13-.5s0-.5.09-.5.11.22.12.49S265.79,421.64,265.74,421.64Z" style="fill:#455a64"></path><path d="M265.82,423.64c-.06,0-.12-.22-.13-.5s0-.5.09-.5.11.22.12.49S265.87,423.63,265.82,423.64Z" style="fill:#455a64"></path><path d="M265.89,425.64c-.05,0-.11-.22-.12-.5s0-.5.08-.5.12.22.13.49S266,425.63,265.89,425.64Z" style="fill:#455a64"></path><path d="M266,427.63c-.06,0-.11-.22-.12-.49s0-.5.08-.51.12.22.13.5S266,427.63,266,427.63Z" style="fill:#455a64"></path><path d="M266.05,429.63c-.06,0-.12-.22-.13-.49s0-.5.09-.51.11.22.12.5S266.1,429.63,266.05,429.63Z" style="fill:#455a64"></path><path d="M266.12,431.63c-.06,0-.11-.22-.12-.49s0-.51.08-.51.12.22.13.5S266.18,431.63,266.12,431.63Z" style="fill:#455a64"></path><path d="M266.2,433.63c-.06,0-.12-.22-.13-.5s0-.5.09-.5.11.22.12.5S266.25,433.63,266.2,433.63Z" style="fill:#455a64"></path><path d="M266.27,435.63c-.06,0-.12-.22-.13-.5s0-.5.09-.5.11.22.12.5S266.32,435.63,266.27,435.63Z" style="fill:#455a64"></path><path d="M266.34,437.64c-.06,0-.12-.23-.12-.5s0-.51.08-.51.11.22.12.5S266.39,437.63,266.34,437.64Z" style="fill:#455a64"></path><path d="M266.4,439.64s-.11-.22-.12-.5,0-.5.09-.5.11.22.12.49S266.46,439.64,266.4,439.64Z" style="fill:#455a64"></path><path d="M266.45,441.09c-.06,0-.11-.1-.11-.22s0-.23.1-.23.1.1.11.22S266.51,441.09,266.45,441.09Z" style="fill:#455a64"></path><path d="M272.16,292.08a1.06,1.06,0,0,1-.92.05,1.8,1.8,0,0,1-.88-.67,3.22,3.22,0,0,1-.47-1.39c-.17-2.14-.32-5.09-.5-8.36s-.31-6.08-.43-8.36l-.1-2.54c0-.24,0-.47,0-.69a.93.93,0,0,1,0-.24.75.75,0,0,1,0,.24c0,.22,0,.44.06.69.05.72.11,1.56.17,2.53.13,2.28.3,5.17.49,8.36s.32,6.07.44,8.35a2.94,2.94,0,0,0,.42,1.34,1.7,1.7,0,0,0,.81.66A1.4,1.4,0,0,0,272.16,292.08Z" style="fill:#455a64"></path><path d="M236.19,307.44a3.3,3.3,0,0,0,.79-.23,3.19,3.19,0,0,0,1.47-1.63,7.73,7.73,0,0,0,.35-3.3,33.36,33.36,0,0,0-.41-4.12,35.23,35.23,0,0,0-1.92-7.1l.08.05-2.35.39-.65.09-.22,0a.66.66,0,0,1,.22-.06l.63-.14,2.35-.45h.06l0,.06a32.7,32.7,0,0,1,2,7.12,33.55,33.55,0,0,1,.4,4.14,7.73,7.73,0,0,1-.42,3.37,3.13,3.13,0,0,1-1.57,1.64A1.67,1.67,0,0,1,236.19,307.44Z" style="fill:#455a64"></path><path d="M237.3,294.06a8.86,8.86,0,0,1-1.9.54,9.85,9.85,0,0,1-2,.33,9.08,9.08,0,0,1,1.91-.54A10.92,10.92,0,0,1,237.3,294.06Z" style="fill:#455a64"></path><path d="M345.61,195.55l-11.2-9.17c-30.44,27.46-69.69,24.34-69.69,24.34v.07c-1.76-.29-11-1.77-14.06-1.83-2.39,0-7.92-.48-11.83,3.21h0a3.83,3.83,0,0,0-.29.28c-3.54,3.46-39,38.38-35.22,47,4,9.11,37.64,28.89,37.64,28.89l8.16-14.82s-2.54-1.66-6-4l27.5-.71,1.21-20.59s4.7-5.25,4.7-9c0-2.62-1.45-7-3.31-11.44C316.58,224.18,345.61,195.55,345.61,195.55Zm-121.88,59c.32-1.08,7.37-8.79,13.73-15.59,2.2,13.45,5.19,28.95,5.48,30.48C235.29,264.25,223.32,255.89,223.73,254.54Z" style="fill:#455a64"></path><path d="M274.9,243.76a9.93,9.93,0,0,1-1,0,10.69,10.69,0,0,1-2.89-.35,5.34,5.34,0,0,1-3.53-2.82,3.24,3.24,0,0,1,0-2.85,2.88,2.88,0,0,1,2.65-1.7,3,3,0,0,1,2.52,2.35,4.43,4.43,0,0,1-1,3.69,8.74,8.74,0,0,1-7.64,3.14,9,9,0,0,1-4.36-1.48,6.87,6.87,0,0,1-2.88-3.82,3.9,3.9,0,0,1,.14-2.5,3.39,3.39,0,0,1,1.86-1.75,2.49,2.49,0,0,1,2.54.32,2.76,2.76,0,0,1,.9,2.45,5.55,5.55,0,0,1-.87,2.47,8.28,8.28,0,0,1-1.78,1.86,9.73,9.73,0,0,1-4.6,1.89,9.17,9.17,0,0,1-8.53-3.14,4.85,4.85,0,0,1-.94-2.05,3.64,3.64,0,0,1,.27-2.19,2.68,2.68,0,0,1,1.58-1.43,2.9,2.9,0,0,1,2.07.18,3.62,3.62,0,0,1,2.13,3.12,4.68,4.68,0,0,1-1.37,3.26,7.17,7.17,0,0,1-5.59,2.14,8.72,8.72,0,0,1-4.36-1.4,7.52,7.52,0,0,1-2.1-2,5.9,5.9,0,0,1-.52-.87s.17.3.57.83a7.62,7.62,0,0,0,2.12,1.94,8.65,8.65,0,0,0,4.3,1.33A7,7,0,0,0,250,242.3a4.47,4.47,0,0,0,1.29-3.11,3.36,3.36,0,0,0-2-2.88,2.61,2.61,0,0,0-1.88-.17,2.4,2.4,0,0,0-1.41,1.3,3.39,3.39,0,0,0-.25,2,4.64,4.64,0,0,0,.9,1.92,8.88,8.88,0,0,0,8.26,3,9.32,9.32,0,0,0,4.45-1.83,7.77,7.77,0,0,0,1.7-1.78,5.23,5.23,0,0,0,.83-2.33,2.45,2.45,0,0,0-.79-2.18,2.16,2.16,0,0,0-2.23-.27,3.12,3.12,0,0,0-1.69,1.58,3.65,3.65,0,0,0-.12,2.31,6.53,6.53,0,0,0,2.75,3.64,8.86,8.86,0,0,0,4.22,1.45,8.5,8.5,0,0,0,7.41-3,4.19,4.19,0,0,0,.95-3.47,2.74,2.74,0,0,0-2.31-2.19,2.68,2.68,0,0,0-2.46,1.57,3.06,3.06,0,0,0,0,2.69,5.22,5.22,0,0,0,3.4,2.77,11.43,11.43,0,0,0,2.86.41h1Z" style="fill:#fff"></path><path d="M271,262.75l-.5.34c-.33.21-.81.53-1.45.92a12.14,12.14,0,0,1-2.45,1.21,8.21,8.21,0,0,1-3.6.32,6.81,6.81,0,0,1-4.06-1.62,3.74,3.74,0,0,1-1.13-2.21,2.61,2.61,0,0,1,1-2.39,2.35,2.35,0,0,1,1.31-.5,2,2,0,0,1,1.37.48,2.83,2.83,0,0,1,.85,2.72,4.61,4.61,0,0,1-1.64,2.49,9.5,9.5,0,0,1-2.64,1.53,10.22,10.22,0,0,1-5.95.37,7.38,7.38,0,0,1-4.62-3,2.83,2.83,0,0,1-.25-2.6,2.59,2.59,0,0,1,2-1.45,1.56,1.56,0,0,1,1.18.34,1.87,1.87,0,0,1,.62,1,2.57,2.57,0,0,1-.42,2.09,6.22,6.22,0,0,1-3,2.06,7.64,7.64,0,0,1-2.7.41,6.69,6.69,0,0,1-1.71-.26,4.2,4.2,0,0,1-.57-.2,9.19,9.19,0,0,0,2.28.34,7.45,7.45,0,0,0,2.64-.46,6,6,0,0,0,2.84-2,2.31,2.31,0,0,0,.38-1.9,1.43,1.43,0,0,0-1.54-1.13,2.33,2.33,0,0,0-1.77,1.31,2.56,2.56,0,0,0,.25,2.34,7.06,7.06,0,0,0,4.45,2.86,9.91,9.91,0,0,0,5.76-.36,9.25,9.25,0,0,0,2.55-1.48A4.31,4.31,0,0,0,262,262a2.55,2.55,0,0,0-.75-2.44,1.8,1.8,0,0,0-2.31,0,2.31,2.31,0,0,0-.91,2.14,3.51,3.51,0,0,0,1,2.05,6.56,6.56,0,0,0,3.9,1.58,8,8,0,0,0,3.52-.27,12.56,12.56,0,0,0,2.45-1.14l1.48-.87C270.79,262.84,271,262.75,271,262.75Z" style="fill:#fff"></path><path d="M286,209.41a4.11,4.11,0,0,1,1.11.77,5.3,5.3,0,0,1,1.65,3.26,5.58,5.58,0,0,1-.31,2.54,5.78,5.78,0,0,1-1.74,2.38,6.22,6.22,0,0,1-3,1.31,5.35,5.35,0,0,1-1.74,0,2.44,2.44,0,0,1-1.6-.88,1.2,1.2,0,0,1-.17-1,1.55,1.55,0,0,1,.56-.78,2.85,2.85,0,0,1,1.7-.49,4.11,4.11,0,0,1,3,1.32,4.37,4.37,0,0,1,1.15,2.7,5.28,5.28,0,0,1-.44,2.53,6.16,6.16,0,0,1-2.46,2.72,6.43,6.43,0,0,1-.89.46,1.57,1.57,0,0,1-.34.11s.45-.2,1.16-.67A6.33,6.33,0,0,0,286,223a5.09,5.09,0,0,0,.38-2.41,4.1,4.1,0,0,0-1.1-2.54,3.86,3.86,0,0,0-2.75-1.21,2.57,2.57,0,0,0-1.51.44,1,1,0,0,0-.32,1.32,2.12,2.12,0,0,0,1.39.76,5.37,5.37,0,0,0,1.65,0,6.08,6.08,0,0,0,2.84-1.23,5.26,5.26,0,0,0,.49-7.88A13.1,13.1,0,0,0,286,209.41Z" style="fill:#fff"></path><path d="M300.65,205.85a1.82,1.82,0,0,1,.49.61,1.62,1.62,0,0,1,.16.92,3.3,3.3,0,0,1-.4,1.15,11,11,0,0,1-1.83,2.55,19.45,19.45,0,0,0-2.46,2.86,10.9,10.9,0,0,0-1.64,6.52,16.61,16.61,0,0,0,.52,2.8,3.33,3.33,0,0,1-.31-.72,10,10,0,0,1-.43-2.06,10.63,10.63,0,0,1,1.6-6.7,17.82,17.82,0,0,1,2.51-2.9,11.34,11.34,0,0,0,1.84-2.45,3.16,3.16,0,0,0,.43-1.08,1.59,1.59,0,0,0-.1-.84C300.82,206.07,300.62,205.87,300.65,205.85Z" style="fill:#fff"></path><path d="M311.68,217.66a3.26,3.26,0,0,1-1.49.31,4.35,4.35,0,0,1-3.6-1.91,6.5,6.5,0,0,1-.2-6,7.18,7.18,0,0,1,2.21-2.93,4.36,4.36,0,0,1,3.83-.79,3,3,0,0,1,2.23,3.08,2.36,2.36,0,0,1-.84,1.73,2.72,2.72,0,0,1-1.72.63,4.27,4.27,0,0,1-3.09-1.19,5.58,5.58,0,0,1-1.5-2.47,6,6,0,0,1,.25-4.12,4.09,4.09,0,0,1,.86-1.27,8.73,8.73,0,0,0-.74,1.32,5.93,5.93,0,0,0-.16,4,5.41,5.41,0,0,0,1.47,2.35,4,4,0,0,0,2.89,1.1,2.51,2.51,0,0,0,1.55-.57,2.08,2.08,0,0,0,.72-1.52,2.74,2.74,0,0,0-2-2.77,4.07,4.07,0,0,0-3.55.73,6.93,6.93,0,0,0-2.13,2.8,6.28,6.28,0,0,0,.12,5.8,4.25,4.25,0,0,0,3.41,1.91A5.75,5.75,0,0,0,311.68,217.66Z" style="fill:#fff"></path><path d="M319.59,197.45a2.52,2.52,0,0,1,.61.25,8,8,0,0,1,1.5,1,7.52,7.52,0,0,1,1.72,2.05,10.24,10.24,0,0,1,1.13,3.08,9.78,9.78,0,0,1-.66,5.85,9.3,9.3,0,0,1-.9,1.56,2.87,2.87,0,0,1-.43.5,21,21,0,0,0,1.12-2.15,10,10,0,0,0,.57-5.7,10.64,10.64,0,0,0-1.08-3,8.23,8.23,0,0,0-1.61-2A19,19,0,0,0,319.59,197.45Z" style="fill:#fff"></path><path d="M336,203.49a4,4,0,0,1-1.27.3,4.58,4.58,0,0,1-1.54-.14,3.79,3.79,0,0,1-1.73-1.1,6.15,6.15,0,0,1-1.53-5,3.88,3.88,0,0,1,1.62-2.69,3,3,0,0,1,1.62-.54,2.46,2.46,0,0,1,1.67.57,2.36,2.36,0,0,1,.88,1.53,2.18,2.18,0,0,1-.5,1.64,3.27,3.27,0,0,1-2.93,1.07,5.89,5.89,0,0,1-4.41-2.75,3.24,3.24,0,0,1-.59-2,4.43,4.43,0,0,1,.41-1.49c.17-.39.32-.68.42-.88a1.6,1.6,0,0,1,.17-.29,1.69,1.69,0,0,1-.11.32c-.11.26-.23.56-.36.89a4.33,4.33,0,0,0-.36,1.45,3.12,3.12,0,0,0,.6,1.84,5.79,5.79,0,0,0,4.25,2.59,3,3,0,0,0,2.67-1,1.91,1.91,0,0,0,.44-1.41,2.12,2.12,0,0,0-.78-1.33,2.42,2.42,0,0,0-2.92,0,3.58,3.58,0,0,0-1.5,2.48,5.93,5.93,0,0,0,1.4,4.79,3.78,3.78,0,0,0,3.1,1.27A11.75,11.75,0,0,0,336,203.49Z" style="fill:#fff"></path><path d="M271.11,253a4.49,4.49,0,0,1-.93.83,8.91,8.91,0,0,1-3.11,1.4,15.62,15.62,0,0,1-5.05.29,42.42,42.42,0,0,1-6.06-1.21,31.06,31.06,0,0,0-6-1A12.65,12.65,0,0,0,245,254a8.88,8.88,0,0,0-2.89,1.68c-.58.54-.84.91-.87.89a4.92,4.92,0,0,1,.79-1,8.42,8.42,0,0,1,2.89-1.81,12.8,12.8,0,0,1,5-.77,30.47,30.47,0,0,1,6.1,1,44.34,44.34,0,0,0,6,1.22,15.55,15.55,0,0,0,5-.22A9.77,9.77,0,0,0,271.11,253Z" style="fill:#fff"></path><path d="M228.76,222.4a2.45,2.45,0,0,1,1.87-.36,5,5,0,0,1,2.05,1c.73.51,1.45,1.19,2.33,1.87s1.69,1.6,2.7,2.39a8.64,8.64,0,0,0,3.69,1.64,16.88,16.88,0,0,0,9.2-1.32c3.11-1.25,6-2.76,8.83-3.52a14.58,14.58,0,0,1,4.13-.6,11.88,11.88,0,0,1,3.58.65,8,8,0,0,1,4.18,3.07,3.61,3.61,0,0,1,.41.72,2.66,2.66,0,0,1,.23.56,3,3,0,0,1,.14.48,10.21,10.21,0,0,0-.88-1.69,8.06,8.06,0,0,0-4.15-2.94,12.27,12.27,0,0,0-3.51-.59,14.8,14.8,0,0,0-4.05.61c-2.81.77-5.66,2.28-8.8,3.54a17,17,0,0,1-9.36,1.31,8.84,8.84,0,0,1-3.8-1.72c-1-.82-1.85-1.71-2.68-2.43s-1.6-1.38-2.29-1.89a5,5,0,0,0-2-1A3.09,3.09,0,0,0,228.76,222.4Z" style="fill:#fff"></path><path d="M274.2,210.7a4.63,4.63,0,0,1,.15.81,7.29,7.29,0,0,1-.15,2.35,8.07,8.07,0,0,1-1.66,3.32,7.1,7.1,0,0,1-4.22,2.45,8,8,0,0,1-5.76-1.27,6.19,6.19,0,0,1-2.22-2.52,1.76,1.76,0,0,1,.19-1.78,2.3,2.3,0,0,1,1.64-.84,2.24,2.24,0,0,1,1.8.59,2.86,2.86,0,0,1,.77,1.77,4,4,0,0,1-1.63,3.48,10.15,10.15,0,0,1-3.67,1.68,12.29,12.29,0,0,1-4.11.52,6.9,6.9,0,0,1-3.89-1.45,4.63,4.63,0,0,1-1.81-3.56,3.65,3.65,0,0,1,1.82-3.36,3.32,3.32,0,0,1,3.64.4,3,3,0,0,1,.57,3.41,4.62,4.62,0,0,1-2.39,2.34,10.84,10.84,0,0,1-5.9.76,12.61,12.61,0,0,1-7.54-4,11,11,0,0,1-1.38-1.89c-.26-.48-.38-.73-.38-.73a15.28,15.28,0,0,0,1.85,2.54,12.64,12.64,0,0,0,7.48,3.82,10.69,10.69,0,0,0,5.76-.77,4.41,4.41,0,0,0,2.25-2.21,2.74,2.74,0,0,0-.52-3.1,3,3,0,0,0-3.3-.34,3.31,3.31,0,0,0-1.65,3.08,4.3,4.3,0,0,0,1.7,3.33,6.58,6.58,0,0,0,3.71,1.38,12,12,0,0,0,4-.51,10,10,0,0,0,3.56-1.62,3.75,3.75,0,0,0,1.52-3.21,2.48,2.48,0,0,0-.68-1.59,1.94,1.94,0,0,0-1.56-.52,2.11,2.11,0,0,0-1.45.73,1.51,1.51,0,0,0-.15,1.51,6,6,0,0,0,2.1,2.4,7.75,7.75,0,0,0,5.58,1.27,6.9,6.9,0,0,0,4.13-2.34,8.17,8.17,0,0,0,1.67-3.24A7.88,7.88,0,0,0,274.2,210.7Z" style="fill:#fff"></path><path d="M223.17,228.18a2.16,2.16,0,0,1,.4-.16c.26-.1.66-.23,1.17-.37a7,7,0,0,1,4.48.18,6.7,6.7,0,0,1,2.58,1.8,5.34,5.34,0,0,1,1.36,3.32,4.91,4.91,0,0,1-5.53,5,3.56,3.56,0,0,1-2-.9,2.12,2.12,0,0,1-.65-2,3.07,3.07,0,0,1,1.21-1.68,4.8,4.8,0,0,1,1.8-.82,6.94,6.94,0,0,1,6.34,1.6,7,7,0,0,1,2.11,4,5.17,5.17,0,0,1,0,1.66,11.44,11.44,0,0,0-.14-1.64,7,7,0,0,0-2.13-3.82,6.75,6.75,0,0,0-6.13-1.48,4.64,4.64,0,0,0-1.69.78,2.75,2.75,0,0,0-1.09,1.51,1.8,1.8,0,0,0,.56,1.75,3.27,3.27,0,0,0,1.85.82,4.62,4.62,0,0,0,5.2-4.67,5,5,0,0,0-1.27-3.16,6.36,6.36,0,0,0-2.46-1.76,6.91,6.91,0,0,0-4.37-.27c-.52.12-.91.23-1.18.31A2.75,2.75,0,0,1,223.17,228.18Z" style="fill:#fff"></path><path d="M227.46,249.87a1.67,1.67,0,0,0,.09-.86,5.37,5.37,0,0,0-1-2.19,3.25,3.25,0,0,0-3.11-1.24c-1.34,0-2.79.65-4.43.52a5.35,5.35,0,0,1-5.1-5.52,4.16,4.16,0,0,1,.63-2.38,2,2,0,0,1,.63-.65s-.24.22-.53.71a4.31,4.31,0,0,0-.51,2.32,5.52,5.52,0,0,0,1.14,3.3,5.46,5.46,0,0,0,3.76,1.91c1.54.12,3-.45,4.4-.5a4.65,4.65,0,0,1,2,.29,2.82,2.82,0,0,1,1.34,1.11,5.09,5.09,0,0,1,.89,2.31A1.08,1.08,0,0,1,227.46,249.87Z" style="fill:#fff"></path><path d="M216.42,272.21a4.17,4.17,0,0,0,1.37-.36,2.52,2.52,0,0,0,1.12-1.16,4,4,0,0,0,.21-2.15,13.8,13.8,0,0,0-.65-2.61,7.91,7.91,0,0,0-1.33-2.74,3,3,0,0,0-2.92-1.07A1.81,1.81,0,0,0,213,263.2a2.51,2.51,0,0,0,0,1.73,2.84,2.84,0,0,0,2.77,1.78,4.86,4.86,0,0,0,3.08-1.14,14.27,14.27,0,0,0,3.49-4.55,11.14,11.14,0,0,0,1.13-3.72c.09-.92,0-1.44.07-1.44a5.84,5.84,0,0,1,.05,1.45,10.64,10.64,0,0,1-1.05,3.8,14,14,0,0,1-3.52,4.68,5,5,0,0,1-3.25,1.22,3.7,3.7,0,0,1-1.82-.48,2.67,2.67,0,0,1-1.24-1.5,2.78,2.78,0,0,1,0-1.95,2.13,2.13,0,0,1,1.42-1.26,3.27,3.27,0,0,1,3.22,1.19,8,8,0,0,1,1.36,2.84,14.37,14.37,0,0,1,.62,2.67,4.22,4.22,0,0,1-.27,2.25,2.63,2.63,0,0,1-1.23,1.19,2.73,2.73,0,0,1-1.05.26A1.33,1.33,0,0,1,216.42,272.21Z" style="fill:#fff"></path><path d="M229.56,279.91a3.13,3.13,0,0,0,.77-.19,2.77,2.77,0,0,0,1.42-1.55,4.29,4.29,0,0,0-.15-3.13c-.41-1.15-1.15-2.31-1.6-3.71a5.15,5.15,0,0,1-.27-2.12,4,4,0,0,1,.72-1.87,4.84,4.84,0,0,1,2.78-1.81,6.49,6.49,0,0,1,2.24-.13,2.78,2.78,0,0,1,.81.16,9.74,9.74,0,0,0-3,.19,4.62,4.62,0,0,0-2.6,1.76,3.54,3.54,0,0,0-.66,1.73,5,5,0,0,0,.27,2c.42,1.34,1.16,2.51,1.57,3.7a4.43,4.43,0,0,1,.08,3.31,2.84,2.84,0,0,1-1.57,1.59A1.42,1.42,0,0,1,229.56,279.91Z" style="fill:#fff"></path><path d="M235.73,240.8a10.08,10.08,0,0,1,1-1.26c.63-.78,1.58-1.9,2.77-3.26s2.61-3,4.13-4.81c.76-.92,1.54-1.89,2.33-2.92a19.08,19.08,0,0,0,2.17-3.33,16.74,16.74,0,0,0,2-7.32,8.16,8.16,0,0,0-2.08-5.67,6.57,6.57,0,0,0-3.59-2,14.1,14.1,0,0,0-1.54-.12s.13,0,.4-.09a4.56,4.56,0,0,1,1.17,0,6.65,6.65,0,0,1,3.83,1.95,8.54,8.54,0,0,1,2.29,5.93,16.8,16.8,0,0,1-2,7.56,19,19,0,0,1-2.22,3.4c-.8,1-1.6,2-2.37,2.92-1.55,1.82-3,3.41-4.23,4.74l-2.89,3.15A9.94,9.94,0,0,1,235.73,240.8Z" style="fill:#263238"></path><path d="M224.57,254.55a13.46,13.46,0,0,1-3.46,1.31,13,13,0,0,1-3.61.81,13.46,13.46,0,0,1,3.46-1.31A13,13,0,0,1,224.57,254.55Z" style="fill:#263238"></path><path d="M224.12,254.42c.08.13-1.11.87-2.25,2.12s-1.8,2.48-1.94,2.41a6.78,6.78,0,0,1,4.19-4.53Z" style="fill:#263238"></path><path d="M274.5,230.7a9.63,9.63,0,0,1-1.16-2.07,50.6,50.6,0,0,1-2.18-5.28,50,50,0,0,1-1.6-5.48,9.09,9.09,0,0,1-.39-2.33,12.28,12.28,0,0,1,.74,2.24c.42,1.39,1,3.31,1.74,5.4s1.48,4,2,5.3A12.53,12.53,0,0,1,274.5,230.7Z" style="fill:#263238"></path><path d="M263.93,240.28a6.16,6.16,0,0,1-1.31,2,13.37,13.37,0,0,1-10.5,4.54,6.21,6.21,0,0,1-2.38-.44c0-.09.92.09,2.39.07a14.46,14.46,0,0,0,10.21-4.42C263.36,241,263.85,240.23,263.93,240.28Z" style="fill:#263238"></path><path d="M257,289.7s-6.91,1.5-7.83.74,1.32-1.58,1.32-1.58-2,.24-2-.48.72-1.23.72-1.23Z" style="fill:#e5baab"></path><path d="M247.63,276.29s9.71,4.38,9.83,4.72.42,7.26-.5,8.69-13.66-5.55-13.66-5.55Z" style="fill:#e5baab"></path><path d="M254.81,288.08a1.52,1.52,0,0,1-.49,0l-1.32-.17a27.86,27.86,0,0,1-4.3-.92,13,13,0,0,1-4-1.91l-1.1-.76c-.26-.18-.4-.28-.39-.3a2.9,2.9,0,0,1,.43.24l1.14.69a14.24,14.24,0,0,0,3.94,1.84,38.53,38.53,0,0,0,4.26,1l1.31.23A3,3,0,0,1,254.81,288.08Z" style="fill:#d78776"></path><path d="M254.77,288.25a7.83,7.83,0,0,1-2.23.57,8.47,8.47,0,0,1-2.3.12c0-.06,1-.14,2.27-.33S254.75,288.2,254.77,288.25Z" style="fill:#d78776"></path></g></svg>